<svg width="352" height="121" viewBox="0 0 352 121" fill="none" xmlns="http://www.w3.org/2000/svg">
<g id="illustration_respite">
<g id="backend-stack">
<g id="server">
<path id="server_2" d="M348.696 89.7681H306.98C305.609 89.7681 304.5 88.6608 304.5 87.2983V81.3586C304.5 79.9961 305.609 78.8887 306.98 78.8887H348.696C350.067 78.8887 351.176 79.9961 351.176 81.3586V87.2983C351.176 88.6608 350.067 89.7681 348.696 89.7681ZM344.227 81.601C342.718 81.601 341.492 82.8206 341.492 84.3284C341.492 85.8363 342.718 87.0558 344.227 87.0558C345.735 87.0558 346.961 85.8363 346.961 84.3284C346.961 82.8206 345.735 81.601 344.227 81.601ZM338.267 81.601C336.758 81.601 335.532 82.8206 335.532 84.3284C335.532 85.8363 336.758 87.0558 338.267 87.0558C339.776 87.0558 341.002 85.8363 341.002 84.3284C341.002 82.8206 339.776 81.601 338.267 81.601ZM348.696 104.617H306.98C305.609 104.617 304.5 103.51 304.5 102.148V96.2078C304.5 94.8454 305.609 93.738 306.98 93.738H348.696C350.067 93.738 351.176 94.8454 351.176 96.2078V102.148C351.176 103.51 350.067 104.617 348.696 104.617ZM344.227 96.4503C342.718 96.4503 341.492 97.6698 341.492 99.1777C341.492 100.686 342.718 101.905 344.227 101.905C345.735 101.905 346.961 100.686 346.961 99.1777C346.961 97.6698 345.735 96.4503 344.227 96.4503ZM338.267 96.4503C336.758 96.4503 335.532 97.6698 335.532 99.1777C335.532 100.686 336.758 101.905 338.267 101.905C339.776 101.905 341.002 100.686 341.002 99.1777C341.002 97.6698 339.776 96.4503 338.267 96.4503ZM348.696 119.467H306.98C305.609 119.467 304.5 118.359 304.5 116.997V111.057C304.5 109.695 305.609 108.587 306.98 108.587H348.696C350.067 108.587 351.176 109.695 351.176 111.057V116.997C351.176 118.359 350.067 119.467 348.696 119.467ZM344.227 111.3C342.718 111.3 341.492 112.519 341.492 114.027C341.492 115.535 342.718 116.754 344.227 116.754C345.735 116.754 346.961 115.535 346.961 114.027C346.961 112.519 345.735 111.3 344.227 111.3ZM338.267 111.3C336.758 111.3 335.532 112.519 335.532 114.027C335.532 115.535 336.758 116.754 338.267 116.754C339.776 116.754 341.002 115.535 341.002 114.027C341.002 112.519 339.776 111.3 338.267 111.3Z" fill="#EBECF4" stroke="black"/>
</g>
<g id="database">
<path id="database_2" d="M299.726 90.1974V93.3731C299.726 93.8481 299.429 94.3861 298.693 94.9512C297.966 95.5108 296.881 96.0367 295.497 96.4877C292.733 97.3879 288.885 97.9542 284.613 97.9542C280.341 97.9542 276.492 97.3879 273.729 96.4877C272.344 96.0367 271.26 95.5108 270.532 94.9512C269.797 94.3861 269.5 93.8481 269.5 93.3731V90.1974C269.5 89.7223 269.797 89.1844 270.532 88.6192C271.26 88.0597 272.344 87.5338 273.729 87.0828C276.492 86.1826 280.341 85.6163 284.613 85.6163C288.885 85.6163 292.733 86.1826 295.497 87.0828C296.881 87.5338 297.966 88.0597 298.693 88.6192C299.429 89.1844 299.726 89.7223 299.726 90.1974ZM299.726 98.2444V104.488C299.726 104.963 299.429 105.501 298.693 106.066C297.966 106.626 296.881 107.152 295.497 107.603C292.733 108.503 288.885 109.069 284.613 109.069C280.341 109.069 276.492 108.503 273.729 107.603C272.344 107.152 271.26 106.626 270.532 106.066C269.797 105.501 269.5 104.963 269.5 104.488V98.2444C271.169 99.1967 273.307 99.9002 275.669 100.383C278.427 100.947 281.526 101.217 284.613 101.217C287.699 101.217 290.798 100.947 293.556 100.383C295.918 99.9002 298.057 99.1967 299.726 98.2444ZM293.556 111.498C295.918 111.015 298.057 110.312 299.726 109.359V115.603C299.726 116.078 299.429 116.616 298.693 117.181C297.966 117.741 296.881 118.267 295.497 118.718C292.733 119.618 288.885 120.184 284.613 120.184C280.341 120.184 276.492 119.618 273.729 118.718C272.344 118.267 271.26 117.741 270.532 117.181C269.797 116.616 269.5 116.078 269.5 115.603V109.359C271.169 110.312 273.307 111.015 275.669 111.498C278.427 112.062 281.526 112.332 284.613 112.332C287.699 112.332 290.798 112.062 293.556 111.498Z" fill="#EBECF4" stroke="black"/>
</g>
<g id="cloud">
<path id="cloud_2" d="M339.551 43.5605L339.339 44.1132L339.919 44.2301C344.039 45.0596 347.141 48.6946 347.141 53.0435C347.141 58.0111 343.101 62.04 338.112 62.04H310.719C305.076 62.04 300.5 57.4769 300.5 51.8564C300.5 47.4171 303.351 43.6395 307.326 42.2457L307.674 42.1237L307.661 41.7553C307.653 41.5534 307.646 41.3624 307.646 41.1729C307.646 34.8922 312.75 29.8024 319.056 29.8024C323.285 29.8024 326.972 32.0903 328.948 35.503L329.215 35.9646L329.659 35.6681C330.711 34.9646 331.984 34.5506 333.348 34.5506C337.019 34.5506 339.994 37.5185 339.994 41.1729C339.994 42.0148 339.835 42.8221 339.551 43.5605ZM313.592 48.7953H317.961V56.6047C317.961 57.5353 318.722 58.2917 319.652 58.2917H323.225C324.154 58.2917 324.916 57.5353 324.916 56.6047V48.7953H329.284C330.781 48.7953 331.55 46.9839 330.478 45.9157L322.632 38.096C321.976 37.4415 320.901 37.4415 320.244 38.096L312.398 45.9157C311.329 46.9815 312.085 48.7953 313.592 48.7953Z" fill="#EBECF4" stroke="black"/>
</g>
</g>
<g id="gits">
<g id="git">
<path id="git_2" d="M155.042 42.0307L155.104 42.0469H155.169H159.976L159.977 43.388L157.936 43.5424L157.007 43.6127L157.58 44.3483C158.03 44.9264 158.478 45.6876 158.478 46.7804C158.478 47.9738 158.13 48.8193 157.613 49.4269C157.089 50.0421 156.36 50.4511 155.542 50.705C153.89 51.2182 152.003 51.0583 151.168 50.827L150.808 50.7274L150.61 51.0438L149.711 52.4812L149.265 53.1943L150.105 53.2454C150.644 53.2782 151.159 53.3076 151.648 53.3357C152.785 53.4007 153.792 53.4584 154.685 53.5338C155.964 53.6419 156.965 53.7836 157.734 54.0206C158.497 54.2557 158.986 54.5708 159.295 54.996C159.605 55.4234 159.783 56.0303 159.783 56.9486C159.783 58.3352 159.185 59.3994 158.046 60.1395C156.88 60.8968 155.119 61.3299 152.802 61.3299C150.363 61.3299 148.764 61.0178 147.79 60.4971C147.312 60.2416 146.996 59.9424 146.798 59.6145C146.6 59.2871 146.5 58.9004 146.5 58.44C146.5 57.9143 146.614 57.5364 146.82 57.192C147.037 56.8305 147.365 56.4855 147.841 56.0401L148.403 55.5134L147.693 55.2144C147.328 55.0608 147.117 54.8618 146.991 54.6549C146.863 54.4437 146.802 54.1869 146.802 53.8869C146.802 53.5298 146.931 53.2014 147.297 52.7531C147.678 52.2875 148.263 51.7517 149.115 50.9737L149.659 50.4772L148.997 50.1549C147.838 49.5906 146.936 48.3598 146.936 46.5356C146.936 45.256 147.285 44.3243 147.818 43.6426C148.354 42.9558 149.105 42.4861 149.963 42.186C151.696 41.5801 153.775 41.6994 155.042 42.0307ZM149.952 55.9088L149.694 55.8912L149.531 56.0922L149.525 56.0987C149.191 56.5096 148.711 57.0999 148.711 57.8444C148.711 58.6838 149.449 59.1688 150.134 59.4234C150.867 59.6959 151.81 59.8181 152.727 59.8074C153.643 59.7966 154.589 59.6523 155.324 59.3507C156.026 59.0625 156.731 58.5395 156.731 57.6823C156.731 57.3165 156.625 56.9556 156.279 56.692C155.985 56.4689 155.573 56.3625 155.101 56.2897C154.442 56.1879 153.465 56.1284 152.079 56.044C151.456 56.006 150.749 55.9629 149.952 55.9088ZM174.976 37.3671C174.975 38.1127 174.971 38.7091 174.968 39.1848C174.964 39.8837 174.961 40.3224 174.97 40.5918C174.974 40.7171 174.982 40.8286 174.996 40.9218C175.009 40.9991 175.037 41.1472 175.141 41.2762C175.281 41.4508 175.466 41.4874 175.574 41.4924C175.614 41.4942 175.652 41.4921 175.666 41.4913L175.669 41.4912C175.688 41.4901 175.692 41.49 175.695 41.49H179.029V43.2014H175.476H174.976V43.7014V50.1816C174.976 50.1937 174.976 50.2136 174.975 50.2399C174.971 50.368 174.962 50.6496 174.997 50.9453C175.04 51.3088 175.154 51.7742 175.466 52.1726C176.094 52.9748 177.267 53.2375 179.205 52.6145L179.658 54.0863C178.567 54.5556 177.127 54.9431 175.83 54.9431C174.26 54.9431 173.309 54.6248 172.738 54.0554C172.167 53.4867 171.868 52.5601 171.868 51.0767V43.9722C171.868 43.9685 171.868 43.9634 171.868 43.9572C171.868 43.926 171.869 43.8672 171.865 43.8202C171.861 43.7565 171.846 43.63 171.763 43.5039C171.673 43.3664 171.548 43.2945 171.443 43.257C171.349 43.2231 171.251 43.2101 171.173 43.2032C171.015 43.1893 170.79 43.1902 170.497 43.1929C170.439 43.1935 170.376 43.1941 170.31 43.1948C170.148 43.1966 169.961 43.1985 169.746 43.1999V41.7212C170.804 41.5378 171.637 41.1381 172.241 40.3995C172.842 39.6651 173.166 38.656 173.336 37.3671H174.976ZM152.911 43.4589C150.9 43.4589 149.785 44.8729 149.749 46.3197C149.731 47.0339 149.976 47.7605 150.506 48.3105C151.04 48.8659 151.829 49.2055 152.83 49.2055C153.821 49.2055 154.603 48.8643 155.138 48.3111C155.666 47.7641 155.92 47.0421 155.919 46.3319C155.919 45.6222 155.665 44.9029 155.15 44.3574C154.629 43.8051 153.867 43.4589 152.911 43.4589ZM162.251 54.9097V53.7071C162.355 53.694 162.45 53.6822 162.539 53.6711C162.654 53.6569 162.759 53.6439 162.856 53.6311C163.102 53.5991 163.323 53.5664 163.493 53.5093C163.692 53.4427 163.901 53.3152 164.006 53.0536C164.075 52.8791 164.075 52.6792 164.075 52.5579C164.074 52.5499 164.074 52.5422 164.074 52.5349V44.5632C164.074 44.4222 164.071 44.2166 163.978 44.0222C163.872 43.8019 163.695 43.6741 163.524 43.586C163.363 43.5031 163.152 43.428 162.909 43.345C162.831 43.3186 162.749 43.2909 162.66 43.2609C162.551 43.2244 162.432 43.1846 162.302 43.1401L162.487 41.7828H167.184V52.5362C167.184 52.6416 167.185 52.758 167.199 52.8624C167.213 52.969 167.246 53.1188 167.353 53.2562C167.464 53.4 167.608 53.4699 167.724 53.5077C167.831 53.5426 167.949 53.5608 168.052 53.5746C168.053 53.5747 168.053 53.5747 168.053 53.5747L169.007 53.705V54.9097H162.251ZM165.262 38.6136C164.582 38.6136 164.11 38.419 163.809 38.1184C163.508 37.8181 163.313 37.3486 163.313 36.6717C163.313 35.9953 163.507 35.5438 163.803 35.2589C164.101 34.9712 164.573 34.7857 165.262 34.7857C165.966 34.7857 166.445 34.9727 166.746 35.2609C167.044 35.5459 167.238 35.9965 167.238 36.6717C167.238 37.3474 167.043 37.816 166.74 38.1163C166.436 38.4173 165.957 38.6136 165.262 38.6136Z" fill="#EBECF4" stroke="black"/>
</g>
<g id="gitbranch">
<path id="gitbranch_2" d="M151 38.48C151 35.1531 148.296 32.4585 144.958 32.4585C141.62 32.4585 138.917 35.1531 138.917 38.48C138.917 41.2199 140.752 43.5307 143.259 44.2608C143.214 45.4726 142.942 46.406 142.428 47.0382C141.265 48.4834 138.705 48.7243 135.994 48.9727C133.864 49.1684 131.659 49.3791 129.854 50.2447V39.4059C132.309 38.6381 134.083 36.3574 134.083 33.6628C134.083 30.3358 131.38 27.6412 128.042 27.6412C124.704 27.6412 122 30.3358 122 33.6628C122 36.3574 123.775 38.6381 126.229 39.4059V54.4072C123.775 55.1824 122 57.4631 122 60.1578C122 63.4847 124.704 66.1794 128.042 66.1794C131.38 66.1794 134.083 63.4847 134.083 60.1578C134.083 57.5986 132.482 55.4083 130.217 54.5426C130.451 54.1512 130.806 53.805 131.342 53.534C132.565 52.9168 134.393 52.7512 136.334 52.5706C139.521 52.277 143.131 51.9383 145.26 49.3039C146.318 47.9942 146.854 46.3081 146.892 44.193C149.278 43.3801 151 41.1295 151 38.48ZM128.042 32.4585C128.706 32.4585 129.25 33.0004 129.25 33.6628C129.25 34.3251 128.706 34.8671 128.042 34.8671C127.377 34.8671 126.833 34.3251 126.833 33.6628C126.833 33.0004 127.377 32.4585 128.042 32.4585ZM128.042 61.3621C127.377 61.3621 126.833 60.8202 126.833 60.1578C126.833 59.4954 127.377 58.9535 128.042 58.9535C128.706 58.9535 129.25 59.4954 129.25 60.1578C129.25 60.8202 128.706 61.3621 128.042 61.3621ZM144.958 37.2757C145.623 37.2757 146.167 37.8177 146.167 38.48C146.167 39.1424 145.623 39.6844 144.958 39.6844C144.294 39.6844 143.75 39.1424 143.75 38.48C143.75 37.8177 144.294 37.2757 144.958 37.2757Z" fill="#F1502F"/>
</g>
</g>
<g id="laptop-react">
<g id="laptop">
<path id="laptop_2" d="M201.6 96.9535H202.1V96.4535V65.0581V64.5581H201.6H134.4H133.9V65.0581V96.4535V96.9535H134.4H201.6ZM114.8 108.727H156.206C156.378 109.67 157.065 110.576 157.993 111.26C159.109 112.081 160.657 112.651 162.4 112.651H173.04C174.69 112.651 176.193 112.261 177.316 111.517C178.317 110.853 179.017 109.903 179.216 108.727H221.2C221.879 108.727 222.476 108.922 222.891 109.213C223.307 109.505 223.5 109.858 223.5 110.189V112.151C223.5 114.101 222.362 115.926 220.423 117.285C218.486 118.642 215.789 119.5 212.8 119.5H123.2C120.211 119.5 117.514 118.642 115.577 117.285C113.638 115.926 112.5 114.101 112.5 112.151V110.189C112.5 109.858 112.693 109.505 113.109 109.213C113.524 108.922 114.121 108.727 114.8 108.727ZM204.4 57.7093C206.619 57.7093 208.616 58.3463 210.046 59.348C211.477 60.3512 212.3 61.6861 212.3 63.0959V103.802H123.7V63.0959C123.7 61.6861 124.523 60.3512 125.954 59.348C127.384 58.3463 129.381 57.7093 131.6 57.7093H204.4Z" fill="#EBECF4" stroke="black"/>
</g>
<g id="react">
<g id="react_2">
<mask id="path-7-inside-1_97_427" fill="white">
<path d="M181.421 75.6676C181.067 75.5499 180.713 75.4388 180.359 75.3343C180.418 75.0925 180.47 74.8507 180.523 74.6089C181.329 70.714 180.798 67.5837 179.008 66.5511C177.283 65.5643 174.471 66.5903 171.625 69.0606C171.343 69.3024 171.068 69.5573 170.805 69.8121C170.628 69.6422 170.445 69.4723 170.261 69.3089C167.278 66.6688 164.288 65.5578 162.498 66.5969C160.78 67.5902 160.268 70.5375 160.99 74.2233C161.062 74.5893 161.14 74.9487 161.232 75.3147C160.813 75.4323 160.4 75.563 160.013 75.7002C156.511 76.9092 154 78.8175 154 80.7911C154 82.83 156.675 84.8755 160.314 86.1172C160.609 86.2152 160.904 86.3132 161.206 86.3982C161.108 86.7903 161.022 87.1759 160.944 87.5745C160.255 91.2015 160.793 94.0769 162.511 95.0637C164.281 96.0832 167.258 95.0376 170.156 92.5085C170.386 92.3059 170.615 92.0968 170.845 91.8746C171.133 92.1556 171.435 92.4235 171.736 92.6849C174.543 95.0899 177.316 96.0636 179.028 95.0768C180.798 94.0573 181.375 90.9662 180.627 87.202C180.568 86.9145 180.503 86.6204 180.431 86.3198C180.641 86.261 180.844 86.1956 181.047 86.1302C184.83 84.882 187.571 82.8627 187.571 80.7911C187.571 78.811 184.988 76.8896 181.421 75.6676ZM172.549 70.1193C174.989 68.0019 177.264 67.172 178.3 67.7667C179.408 68.4006 179.834 70.9623 179.139 74.3279C179.093 74.5501 179.047 74.7657 178.988 74.9814C177.533 74.6546 176.057 74.4194 174.575 74.2887C173.723 73.0731 172.792 71.9099 171.782 70.8185C172.038 70.5767 172.287 70.348 172.549 70.1193ZM164.963 84.1828C165.297 84.7513 165.638 85.3199 165.999 85.8754C164.976 85.7643 163.96 85.6009 162.957 85.3852C163.245 84.4442 163.606 83.4705 164.025 82.4771C164.327 83.0522 164.635 83.6208 164.963 84.1828ZM162.976 76.3211C163.921 76.112 164.924 75.942 165.966 75.8113C165.619 76.3538 165.278 76.9092 164.957 77.4713C164.635 78.0267 164.321 78.5953 164.025 79.1704C163.612 78.1967 163.265 77.2425 162.976 76.3211ZM164.773 80.8238C165.206 79.9219 165.678 79.0397 166.176 78.1705C166.674 77.3013 167.212 76.4583 167.776 75.6284C168.76 75.5565 169.763 75.5173 170.786 75.5173C171.808 75.5173 172.818 75.5565 173.795 75.6284C174.353 76.4518 174.884 77.2948 175.389 78.1574C175.893 79.0201 176.365 79.9023 176.811 80.7976C176.372 81.6995 175.9 82.5882 175.395 83.4639C174.897 84.3331 174.366 85.1761 173.808 86.0126C172.831 86.0845 171.815 86.1172 170.786 86.1172C169.756 86.1172 168.76 86.0845 167.796 86.0257C167.225 85.1957 166.688 84.3462 166.183 83.477C165.678 82.6078 165.212 81.7256 164.773 80.8238ZM176.615 84.1697C176.949 83.5946 177.264 83.013 177.572 82.4249C177.992 83.3724 178.359 84.3331 178.68 85.3199C177.664 85.5486 176.634 85.7251 175.598 85.8427C175.952 85.2938 176.287 84.7317 176.615 84.1697ZM177.559 79.1704C177.251 78.5953 176.936 78.0202 176.608 77.4582C176.287 76.9027 175.952 76.3538 175.605 75.8113C176.661 75.942 177.67 76.1185 178.614 76.3342C178.313 77.3013 177.959 78.2424 177.559 79.1704ZM170.799 71.8184C171.487 72.5634 172.136 73.3476 172.74 74.158C171.441 74.0992 170.136 74.0992 168.838 74.158C169.481 73.3149 170.143 72.5307 170.799 71.8184ZM163.193 67.8124C164.294 67.172 166.74 68.0869 169.317 70.3611C169.481 70.5049 169.645 70.6617 169.815 70.8185C168.799 71.9099 167.861 73.0731 167.002 74.2887C165.52 74.4194 164.052 74.6481 162.596 74.9683C162.511 74.635 162.439 74.2952 162.367 73.9554C161.75 70.7924 162.157 68.4071 163.193 67.8124ZM161.586 85.0389C161.311 84.9605 161.042 84.8755 160.773 84.784C159.377 84.3462 157.79 83.6535 156.642 82.7451C155.98 82.2876 155.534 81.5818 155.41 80.7911C155.41 79.5952 157.482 78.066 160.472 77.0269C160.845 76.8962 161.226 76.7785 161.606 76.6674C162.052 78.0856 162.59 79.4775 163.212 80.8238C162.583 82.1896 162.039 83.6012 161.586 85.0389ZM169.232 91.4433C168.15 92.4301 166.897 93.2143 165.534 93.7502C164.806 94.0965 163.966 94.1292 163.219 93.8351C162.176 93.2339 161.744 90.927 162.334 87.8228C162.406 87.4569 162.485 87.0909 162.576 86.7315C164.045 87.0452 165.527 87.2608 167.029 87.3719C167.894 88.594 168.845 89.7638 169.861 90.8617C169.651 91.0642 169.441 91.2603 169.232 91.4433ZM170.838 89.8552C170.169 89.1364 169.5 88.3391 168.851 87.483C169.481 87.5092 170.13 87.5222 170.786 87.5222C171.461 87.5222 172.123 87.5092 172.779 87.4765C172.176 88.3064 171.527 89.0972 170.838 89.8552ZM179.408 91.8158C179.349 92.6131 178.955 93.3581 178.326 93.8613C177.283 94.4625 175.061 93.6783 172.661 91.6263C172.385 91.391 172.11 91.1361 171.828 90.8747C172.831 89.7703 173.756 88.6005 174.595 87.3719C176.097 87.2477 177.592 87.019 179.067 86.6857C179.132 86.9537 179.192 87.2216 179.244 87.483C179.565 88.8946 179.618 90.365 179.408 91.8158ZM180.601 84.7906C180.418 84.8494 180.234 84.9082 180.044 84.9605C179.585 83.5358 179.021 82.1438 178.372 80.7911C179.001 79.4579 179.532 78.0856 179.978 76.6805C180.319 76.7785 180.647 76.8831 180.962 76.9877C184.017 78.0333 186.161 79.5886 186.161 80.778C186.161 82.0589 183.873 83.7123 180.601 84.7906ZM170.786 83.8103C172.444 83.8103 173.789 82.4706 173.789 80.8172C173.789 79.1638 172.444 77.8242 170.786 77.8242C169.127 77.8242 167.783 79.1638 167.783 80.8172C167.783 82.4706 169.127 83.8103 170.786 83.8103Z"/>
</mask>
<path d="M181.421 75.6676C181.067 75.5499 180.713 75.4388 180.359 75.3343C180.418 75.0925 180.47 74.8507 180.523 74.6089C181.329 70.714 180.798 67.5837 179.008 66.5511C177.283 65.5643 174.471 66.5903 171.625 69.0606C171.343 69.3024 171.068 69.5573 170.805 69.8121C170.628 69.6422 170.445 69.4723 170.261 69.3089C167.278 66.6688 164.288 65.5578 162.498 66.5969C160.78 67.5902 160.268 70.5375 160.99 74.2233C161.062 74.5893 161.14 74.9487 161.232 75.3147C160.813 75.4323 160.4 75.563 160.013 75.7002C156.511 76.9092 154 78.8175 154 80.7911C154 82.83 156.675 84.8755 160.314 86.1172C160.609 86.2152 160.904 86.3132 161.206 86.3982C161.108 86.7903 161.022 87.1759 160.944 87.5745C160.255 91.2015 160.793 94.0769 162.511 95.0637C164.281 96.0832 167.258 95.0376 170.156 92.5085C170.386 92.3059 170.615 92.0968 170.845 91.8746C171.133 92.1556 171.435 92.4235 171.736 92.6849C174.543 95.0899 177.316 96.0636 179.028 95.0768C180.798 94.0573 181.375 90.9662 180.627 87.202C180.568 86.9145 180.503 86.6204 180.431 86.3198C180.641 86.261 180.844 86.1956 181.047 86.1302C184.83 84.882 187.571 82.8627 187.571 80.7911C187.571 78.811 184.988 76.8896 181.421 75.6676ZM172.549 70.1193C174.989 68.0019 177.264 67.172 178.3 67.7667C179.408 68.4006 179.834 70.9623 179.139 74.3279C179.093 74.5501 179.047 74.7657 178.988 74.9814C177.533 74.6546 176.057 74.4194 174.575 74.2887C173.723 73.0731 172.792 71.9099 171.782 70.8185C172.038 70.5767 172.287 70.348 172.549 70.1193ZM164.963 84.1828C165.297 84.7513 165.638 85.3199 165.999 85.8754C164.976 85.7643 163.96 85.6009 162.957 85.3852C163.245 84.4442 163.606 83.4705 164.025 82.4771C164.327 83.0522 164.635 83.6208 164.963 84.1828ZM162.976 76.3211C163.921 76.112 164.924 75.942 165.966 75.8113C165.619 76.3538 165.278 76.9092 164.957 77.4713C164.635 78.0267 164.321 78.5953 164.025 79.1704C163.612 78.1967 163.265 77.2425 162.976 76.3211ZM164.773 80.8238C165.206 79.9219 165.678 79.0397 166.176 78.1705C166.674 77.3013 167.212 76.4583 167.776 75.6284C168.76 75.5565 169.763 75.5173 170.786 75.5173C171.808 75.5173 172.818 75.5565 173.795 75.6284C174.353 76.4518 174.884 77.2948 175.389 78.1574C175.893 79.0201 176.365 79.9023 176.811 80.7976C176.372 81.6995 175.9 82.5882 175.395 83.4639C174.897 84.3331 174.366 85.1761 173.808 86.0126C172.831 86.0845 171.815 86.1172 170.786 86.1172C169.756 86.1172 168.76 86.0845 167.796 86.0257C167.225 85.1957 166.688 84.3462 166.183 83.477C165.678 82.6078 165.212 81.7256 164.773 80.8238ZM176.615 84.1697C176.949 83.5946 177.264 83.013 177.572 82.4249C177.992 83.3724 178.359 84.3331 178.68 85.3199C177.664 85.5486 176.634 85.7251 175.598 85.8427C175.952 85.2938 176.287 84.7317 176.615 84.1697ZM177.559 79.1704C177.251 78.5953 176.936 78.0202 176.608 77.4582C176.287 76.9027 175.952 76.3538 175.605 75.8113C176.661 75.942 177.67 76.1185 178.614 76.3342C178.313 77.3013 177.959 78.2424 177.559 79.1704ZM170.799 71.8184C171.487 72.5634 172.136 73.3476 172.74 74.158C171.441 74.0992 170.136 74.0992 168.838 74.158C169.481 73.3149 170.143 72.5307 170.799 71.8184ZM163.193 67.8124C164.294 67.172 166.74 68.0869 169.317 70.3611C169.481 70.5049 169.645 70.6617 169.815 70.8185C168.799 71.9099 167.861 73.0731 167.002 74.2887C165.52 74.4194 164.052 74.6481 162.596 74.9683C162.511 74.635 162.439 74.2952 162.367 73.9554C161.75 70.7924 162.157 68.4071 163.193 67.8124ZM161.586 85.0389C161.311 84.9605 161.042 84.8755 160.773 84.784C159.377 84.3462 157.79 83.6535 156.642 82.7451C155.98 82.2876 155.534 81.5818 155.41 80.7911C155.41 79.5952 157.482 78.066 160.472 77.0269C160.845 76.8962 161.226 76.7785 161.606 76.6674C162.052 78.0856 162.59 79.4775 163.212 80.8238C162.583 82.1896 162.039 83.6012 161.586 85.0389ZM169.232 91.4433C168.15 92.4301 166.897 93.2143 165.534 93.7502C164.806 94.0965 163.966 94.1292 163.219 93.8351C162.176 93.2339 161.744 90.927 162.334 87.8228C162.406 87.4569 162.485 87.0909 162.576 86.7315C164.045 87.0452 165.527 87.2608 167.029 87.3719C167.894 88.594 168.845 89.7638 169.861 90.8617C169.651 91.0642 169.441 91.2603 169.232 91.4433ZM170.838 89.8552C170.169 89.1364 169.5 88.3391 168.851 87.483C169.481 87.5092 170.13 87.5222 170.786 87.5222C171.461 87.5222 172.123 87.5092 172.779 87.4765C172.176 88.3064 171.527 89.0972 170.838 89.8552ZM179.408 91.8158C179.349 92.6131 178.955 93.3581 178.326 93.8613C177.283 94.4625 175.061 93.6783 172.661 91.6263C172.385 91.391 172.11 91.1361 171.828 90.8747C172.831 89.7703 173.756 88.6005 174.595 87.3719C176.097 87.2477 177.592 87.019 179.067 86.6857C179.132 86.9537 179.192 87.2216 179.244 87.483C179.565 88.8946 179.618 90.365 179.408 91.8158ZM180.601 84.7906C180.418 84.8494 180.234 84.9082 180.044 84.9605C179.585 83.5358 179.021 82.1438 178.372 80.7911C179.001 79.4579 179.532 78.0856 179.978 76.6805C180.319 76.7785 180.647 76.8831 180.962 76.9877C184.017 78.0333 186.161 79.5886 186.161 80.778C186.161 82.0589 183.873 83.7123 180.601 84.7906ZM170.786 83.8103C172.444 83.8103 173.789 82.4706 173.789 80.8172C173.789 79.1638 172.444 77.8242 170.786 77.8242C169.127 77.8242 167.783 79.1638 167.783 80.8172C167.783 82.4706 169.127 83.8103 170.786 83.8103Z" fill="#98C1D9" stroke="black" stroke-width="0.8" mask="url(#path-7-inside-1_97_427)"/>
</g>
</g>
</g>
<g id="nodejs">
<g id="nodejs_2">
<mask id="path-8-inside-2_97_427" fill="white">
<path d="M250.789 109.37C250.385 109.37 249.982 109.255 249.617 109.064L245.927 106.88C245.369 106.574 245.638 106.459 245.83 106.401C246.561 106.152 246.715 106.095 247.503 105.635C247.579 105.597 247.695 105.616 247.772 105.654L250.616 107.34C250.712 107.397 250.866 107.397 250.962 107.34L262.07 100.942C262.166 100.885 262.243 100.77 262.243 100.635V87.8592C262.243 87.7251 262.186 87.6102 262.07 87.5527L250.962 81.1741C250.866 81.1167 250.731 81.1167 250.616 81.1741L239.508 87.5527C239.392 87.6102 239.335 87.7443 239.335 87.8592V100.635C239.335 100.75 239.411 100.865 239.508 100.923L242.544 102.666C244.197 103.49 245.215 102.513 245.215 101.555V88.9319C245.215 88.7595 245.35 88.6062 245.542 88.6062H246.945C247.118 88.6062 247.272 88.7403 247.272 88.9319V101.555C247.272 103.758 246.08 105.003 243.985 105.003C243.351 105.003 242.832 105.003 241.429 104.313L238.508 102.647C237.797 102.225 237.336 101.459 237.336 100.635V87.8592C237.336 87.0355 237.778 86.2502 238.508 85.8479L249.617 79.4502C250.328 79.0479 251.25 79.0479 251.942 79.4502L263.05 85.8479C263.762 86.2693 264.223 87.0355 264.223 87.8592V100.635C264.223 101.459 263.781 102.245 263.05 102.647L251.942 109.044C251.615 109.255 251.212 109.37 250.789 109.37ZM259.764 96.7662C259.764 94.3718 258.15 93.7397 254.729 93.28C251.269 92.8203 250.923 92.5904 250.923 91.7859C250.923 91.1155 251.212 90.2344 253.768 90.2344C256.055 90.2344 256.9 90.7324 257.246 92.2648C257.285 92.418 257.4 92.5138 257.554 92.5138H258.995C259.091 92.5138 259.168 92.4755 259.226 92.418C259.284 92.3414 259.322 92.2648 259.303 92.169C259.072 89.5257 257.323 88.2997 253.768 88.2997C250.597 88.2997 248.713 89.6406 248.713 91.8626C248.713 94.2952 250.597 94.9465 253.633 95.253C257.266 95.6169 257.554 96.1341 257.554 96.8428C257.554 98.0879 256.555 98.6051 254.21 98.6051C251.269 98.6051 250.616 97.8772 250.405 96.4214C250.385 96.2682 250.251 96.1533 250.078 96.1533H248.636C248.463 96.1533 248.31 96.2873 248.31 96.4789C248.31 98.3369 249.328 100.559 254.191 100.559C257.746 100.559 259.764 99.1797 259.764 96.7662ZM270.238 87.1696C270.238 88.3381 269.277 89.2958 268.105 89.2958C266.933 89.2958 265.972 88.3381 265.972 87.1696C265.972 85.9628 266.971 85.0434 268.105 85.0434C269.258 85.0243 270.238 85.9628 270.238 87.1696ZM269.892 87.1696C269.892 86.1735 269.085 85.3882 268.086 85.3882C267.106 85.3882 266.298 86.1735 266.298 87.1696C266.298 88.1657 267.106 88.9702 268.086 88.9702C269.085 88.951 269.892 88.1465 269.892 87.1696ZM269.028 88.3572H268.528C268.509 88.2423 268.432 87.6293 268.432 87.6102C268.393 87.4761 268.355 87.3995 268.182 87.3995H267.759V88.3572H267.298V85.9628H268.124C268.413 85.9628 268.97 85.9628 268.97 86.595C268.97 87.0355 268.682 87.1313 268.509 87.1888C268.835 87.2079 268.855 87.4186 268.912 87.7251C268.931 87.9166 268.97 88.2423 269.028 88.3572ZM268.489 86.6716C268.489 86.3459 268.259 86.3459 268.143 86.3459H267.759V87.0164H268.124C268.432 87.0164 268.489 86.8057 268.489 86.6716ZM216.387 59.3758C216.387 58.8587 216.118 58.3989 215.676 58.1499L203.895 51.3882C203.703 51.2733 203.472 51.2159 203.242 51.1967H203.126C202.896 51.1967 202.684 51.2733 202.473 51.3882L190.711 58.1499C190.269 58.3989 190 58.8778 190 59.3758L190.019 77.573C190.019 77.822 190.154 78.0519 190.365 78.186C190.577 78.32 190.846 78.32 191.076 78.186L198.072 74.1826C198.514 73.9144 198.783 73.4547 198.783 72.9567V64.4519C198.783 63.9539 199.052 63.475 199.494 63.226L202.473 61.5212C202.704 61.3871 202.934 61.3296 203.184 61.3296C203.434 61.3296 203.684 61.3871 203.895 61.5212L206.874 63.226C207.316 63.475 207.585 63.9539 207.585 64.4519V72.9567C207.585 73.4547 207.854 73.9336 208.296 74.1826L215.292 78.186C215.503 78.32 215.792 78.32 216.003 78.186C216.214 78.071 216.349 77.822 216.349 77.573L216.387 59.3758ZM280.809 39.5122V73.3015C280.809 73.7995 280.54 74.2784 280.097 74.5274L268.316 81.3082C267.874 81.5572 267.336 81.5572 266.894 81.3082L255.113 74.5274C254.671 74.2784 254.402 73.7995 254.402 73.3015V59.7398C254.402 59.2418 254.671 58.7629 255.113 58.5139L266.894 51.733C267.336 51.484 267.874 51.484 268.316 51.733L271.257 53.4187C271.584 53.6102 272.006 53.3612 272.006 52.9973V34.9917C272.006 34.4553 272.583 34.1105 273.063 34.3787L280.078 38.2863C280.52 38.5162 280.809 38.995 280.809 39.5122ZM271.968 64.2029C271.968 64.0688 271.891 63.9539 271.795 63.8964L267.759 61.5595C267.644 61.502 267.509 61.502 267.394 61.5595L263.358 63.8964C263.243 63.9539 263.185 64.0688 263.185 64.2029V68.8575C263.185 68.9916 263.262 69.1065 263.358 69.164L267.394 71.4817C267.509 71.5392 267.644 71.5392 267.74 71.4817L271.776 69.164C271.891 69.1065 271.949 68.9916 271.949 68.8575V64.2029H271.968ZM312.289 64.0688C312.731 63.8198 313 63.3409 313 62.8429V59.5674C313 59.0694 312.731 58.5905 312.289 58.3415L300.585 51.5606C300.143 51.3116 299.605 51.3116 299.163 51.5606L287.381 58.3415C286.939 58.5905 286.67 59.0694 286.67 59.5674V73.1291C286.67 73.6462 286.939 74.106 287.381 74.355L299.086 81.0017C299.508 81.2507 300.047 81.2507 300.489 81.0017L307.561 77.075C308.042 76.8068 308.042 76.1172 307.561 75.8491L295.703 69.0682C295.473 68.9341 295.338 68.7043 295.338 68.4553V64.2029C295.338 63.9539 295.473 63.724 295.703 63.5899L299.393 61.4637C299.605 61.3296 299.893 61.3296 300.104 61.4637L303.794 63.5899C304.006 63.724 304.159 63.9539 304.159 64.2029V67.5358C304.159 68.0722 304.755 68.417 305.236 68.1488L312.289 64.0688ZM297.433 64.7392C297.356 64.7967 297.298 64.8733 297.298 64.9691V67.5741C297.298 67.6699 297.356 67.7657 297.433 67.804L299.701 69.1065C299.777 69.164 299.893 69.164 299.97 69.1065L302.238 67.804C302.314 67.7465 302.372 67.6699 302.372 67.5741V64.9691C302.372 64.8733 302.314 64.7775 302.238 64.7392L299.97 63.4367C299.893 63.3792 299.777 63.3792 299.701 63.4367L297.433 64.7392ZM248.579 73.0716V59.5865C248.579 59.0885 248.271 58.6096 247.829 58.3606L236.087 51.6181C235.683 51.3882 235.126 51.3499 234.664 51.6181L222.922 58.3606C222.48 58.6096 222.172 59.0694 222.172 59.5865V73.0716C222.172 73.6079 222.537 74.0676 222.941 74.2975L234.703 81.04C235.164 81.3082 235.702 81.289 236.125 81.04L247.848 74.2975C248.194 74.106 248.444 73.7803 248.54 73.3972C248.56 73.3015 248.579 73.1865 248.579 73.0716ZM234.299 49.1471L234.145 49.2429H234.357L234.299 49.1471ZM248.944 74.0868L248.867 73.9527V74.1251L248.944 74.0868Z"/>
</mask>
<path d="M250.789 109.37C250.385 109.37 249.982 109.255 249.617 109.064L245.927 106.88C245.369 106.574 245.638 106.459 245.83 106.401C246.561 106.152 246.715 106.095 247.503 105.635C247.579 105.597 247.695 105.616 247.772 105.654L250.616 107.34C250.712 107.397 250.866 107.397 250.962 107.34L262.07 100.942C262.166 100.885 262.243 100.77 262.243 100.635V87.8592C262.243 87.7251 262.186 87.6102 262.07 87.5527L250.962 81.1741C250.866 81.1167 250.731 81.1167 250.616 81.1741L239.508 87.5527C239.392 87.6102 239.335 87.7443 239.335 87.8592V100.635C239.335 100.75 239.411 100.865 239.508 100.923L242.544 102.666C244.197 103.49 245.215 102.513 245.215 101.555V88.9319C245.215 88.7595 245.35 88.6062 245.542 88.6062H246.945C247.118 88.6062 247.272 88.7403 247.272 88.9319V101.555C247.272 103.758 246.08 105.003 243.985 105.003C243.351 105.003 242.832 105.003 241.429 104.313L238.508 102.647C237.797 102.225 237.336 101.459 237.336 100.635V87.8592C237.336 87.0355 237.778 86.2502 238.508 85.8479L249.617 79.4502C250.328 79.0479 251.25 79.0479 251.942 79.4502L263.05 85.8479C263.762 86.2693 264.223 87.0355 264.223 87.8592V100.635C264.223 101.459 263.781 102.245 263.05 102.647L251.942 109.044C251.615 109.255 251.212 109.37 250.789 109.37ZM259.764 96.7662C259.764 94.3718 258.15 93.7397 254.729 93.28C251.269 92.8203 250.923 92.5904 250.923 91.7859C250.923 91.1155 251.212 90.2344 253.768 90.2344C256.055 90.2344 256.9 90.7324 257.246 92.2648C257.285 92.418 257.4 92.5138 257.554 92.5138H258.995C259.091 92.5138 259.168 92.4755 259.226 92.418C259.284 92.3414 259.322 92.2648 259.303 92.169C259.072 89.5257 257.323 88.2997 253.768 88.2997C250.597 88.2997 248.713 89.6406 248.713 91.8626C248.713 94.2952 250.597 94.9465 253.633 95.253C257.266 95.6169 257.554 96.1341 257.554 96.8428C257.554 98.0879 256.555 98.6051 254.21 98.6051C251.269 98.6051 250.616 97.8772 250.405 96.4214C250.385 96.2682 250.251 96.1533 250.078 96.1533H248.636C248.463 96.1533 248.31 96.2873 248.31 96.4789C248.31 98.3369 249.328 100.559 254.191 100.559C257.746 100.559 259.764 99.1797 259.764 96.7662ZM270.238 87.1696C270.238 88.3381 269.277 89.2958 268.105 89.2958C266.933 89.2958 265.972 88.3381 265.972 87.1696C265.972 85.9628 266.971 85.0434 268.105 85.0434C269.258 85.0243 270.238 85.9628 270.238 87.1696ZM269.892 87.1696C269.892 86.1735 269.085 85.3882 268.086 85.3882C267.106 85.3882 266.298 86.1735 266.298 87.1696C266.298 88.1657 267.106 88.9702 268.086 88.9702C269.085 88.951 269.892 88.1465 269.892 87.1696ZM269.028 88.3572H268.528C268.509 88.2423 268.432 87.6293 268.432 87.6102C268.393 87.4761 268.355 87.3995 268.182 87.3995H267.759V88.3572H267.298V85.9628H268.124C268.413 85.9628 268.97 85.9628 268.97 86.595C268.97 87.0355 268.682 87.1313 268.509 87.1888C268.835 87.2079 268.855 87.4186 268.912 87.7251C268.931 87.9166 268.97 88.2423 269.028 88.3572ZM268.489 86.6716C268.489 86.3459 268.259 86.3459 268.143 86.3459H267.759V87.0164H268.124C268.432 87.0164 268.489 86.8057 268.489 86.6716ZM216.387 59.3758C216.387 58.8587 216.118 58.3989 215.676 58.1499L203.895 51.3882C203.703 51.2733 203.472 51.2159 203.242 51.1967H203.126C202.896 51.1967 202.684 51.2733 202.473 51.3882L190.711 58.1499C190.269 58.3989 190 58.8778 190 59.3758L190.019 77.573C190.019 77.822 190.154 78.0519 190.365 78.186C190.577 78.32 190.846 78.32 191.076 78.186L198.072 74.1826C198.514 73.9144 198.783 73.4547 198.783 72.9567V64.4519C198.783 63.9539 199.052 63.475 199.494 63.226L202.473 61.5212C202.704 61.3871 202.934 61.3296 203.184 61.3296C203.434 61.3296 203.684 61.3871 203.895 61.5212L206.874 63.226C207.316 63.475 207.585 63.9539 207.585 64.4519V72.9567C207.585 73.4547 207.854 73.9336 208.296 74.1826L215.292 78.186C215.503 78.32 215.792 78.32 216.003 78.186C216.214 78.071 216.349 77.822 216.349 77.573L216.387 59.3758ZM280.809 39.5122V73.3015C280.809 73.7995 280.54 74.2784 280.097 74.5274L268.316 81.3082C267.874 81.5572 267.336 81.5572 266.894 81.3082L255.113 74.5274C254.671 74.2784 254.402 73.7995 254.402 73.3015V59.7398C254.402 59.2418 254.671 58.7629 255.113 58.5139L266.894 51.733C267.336 51.484 267.874 51.484 268.316 51.733L271.257 53.4187C271.584 53.6102 272.006 53.3612 272.006 52.9973V34.9917C272.006 34.4553 272.583 34.1105 273.063 34.3787L280.078 38.2863C280.52 38.5162 280.809 38.995 280.809 39.5122ZM271.968 64.2029C271.968 64.0688 271.891 63.9539 271.795 63.8964L267.759 61.5595C267.644 61.502 267.509 61.502 267.394 61.5595L263.358 63.8964C263.243 63.9539 263.185 64.0688 263.185 64.2029V68.8575C263.185 68.9916 263.262 69.1065 263.358 69.164L267.394 71.4817C267.509 71.5392 267.644 71.5392 267.74 71.4817L271.776 69.164C271.891 69.1065 271.949 68.9916 271.949 68.8575V64.2029H271.968ZM312.289 64.0688C312.731 63.8198 313 63.3409 313 62.8429V59.5674C313 59.0694 312.731 58.5905 312.289 58.3415L300.585 51.5606C300.143 51.3116 299.605 51.3116 299.163 51.5606L287.381 58.3415C286.939 58.5905 286.67 59.0694 286.67 59.5674V73.1291C286.67 73.6462 286.939 74.106 287.381 74.355L299.086 81.0017C299.508 81.2507 300.047 81.2507 300.489 81.0017L307.561 77.075C308.042 76.8068 308.042 76.1172 307.561 75.8491L295.703 69.0682C295.473 68.9341 295.338 68.7043 295.338 68.4553V64.2029C295.338 63.9539 295.473 63.724 295.703 63.5899L299.393 61.4637C299.605 61.3296 299.893 61.3296 300.104 61.4637L303.794 63.5899C304.006 63.724 304.159 63.9539 304.159 64.2029V67.5358C304.159 68.0722 304.755 68.417 305.236 68.1488L312.289 64.0688ZM297.433 64.7392C297.356 64.7967 297.298 64.8733 297.298 64.9691V67.5741C297.298 67.6699 297.356 67.7657 297.433 67.804L299.701 69.1065C299.777 69.164 299.893 69.164 299.97 69.1065L302.238 67.804C302.314 67.7465 302.372 67.6699 302.372 67.5741V64.9691C302.372 64.8733 302.314 64.7775 302.238 64.7392L299.97 63.4367C299.893 63.3792 299.777 63.3792 299.701 63.4367L297.433 64.7392ZM248.579 73.0716V59.5865C248.579 59.0885 248.271 58.6096 247.829 58.3606L236.087 51.6181C235.683 51.3882 235.126 51.3499 234.664 51.6181L222.922 58.3606C222.48 58.6096 222.172 59.0694 222.172 59.5865V73.0716C222.172 73.6079 222.537 74.0676 222.941 74.2975L234.703 81.04C235.164 81.3082 235.702 81.289 236.125 81.04L247.848 74.2975C248.194 74.106 248.444 73.7803 248.54 73.3972C248.56 73.3015 248.579 73.1865 248.579 73.0716ZM234.299 49.1471L234.145 49.2429H234.357L234.299 49.1471ZM248.944 74.0868L248.867 73.9527V74.1251L248.944 74.0868Z" fill="#6CC24A" stroke="black" stroke-width="2" mask="url(#path-8-inside-2_97_427)"/>
</g>
</g>
<g id="machine-learning">
<g id="robot">
<path id="robot_2" d="M119.259 98.745H117.376H119.259ZM119.259 98.745C119.571 98.7446 119.881 98.8058 120.171 98.925M119.259 98.745L120.171 98.925M93.5652 99.192C93.9475 99.7622 94.1517 100.433 94.1517 101.119L93.5652 99.192ZM93.5652 99.192C93.1829 98.6217 92.6397 98.1775 92.0044 97.9152M93.5652 99.192L92.0044 97.9152M92.0044 97.9152C91.3692 97.653 90.6703 97.5844 89.9961 97.7181M92.0044 97.9152L89.9961 97.7181M89.9961 97.7181C89.3218 97.8517 88.7022 98.1817 88.2158 98.6665M89.9961 97.7181L88.2158 98.6665M88.2158 98.6665C87.7293 99.1514 87.3978 99.7693 87.2635 100.442M88.2158 98.6665L87.2635 100.442M87.2635 100.442C87.1292 101.115 87.1982 101.813 87.4616 102.447M87.2635 100.442L87.4616 102.447M87.4616 102.447C87.725 103.08 88.171 103.622 88.7428 104.003M87.4616 102.447L88.7428 104.003M88.7428 104.003C89.3146 104.384 89.9867 104.587 90.6742 104.587L88.7428 104.003ZM107.857 99.192C108.24 99.7623 108.444 100.433 108.444 101.119C108.444 101.575 108.354 102.026 108.179 102.447C108.004 102.868 107.748 103.25 107.425 103.572C107.102 103.894 106.718 104.149 106.297 104.323C105.875 104.497 105.423 104.587 104.966 104.587L107.857 99.192ZM107.857 99.192C107.475 98.6217 106.932 98.1775 106.297 97.9152M107.857 99.192L106.297 97.9152M106.297 97.9152C105.661 97.653 104.962 97.5844 104.288 97.7181M106.297 97.9152L104.288 97.7181M104.288 97.7181C103.614 97.8517 102.994 98.1817 102.508 98.6665M104.288 97.7181L102.508 98.6665M102.508 98.6665C102.021 99.1514 101.69 99.7693 101.556 100.442M102.508 98.6665L101.556 100.442M101.556 100.442C101.421 101.115 101.49 101.813 101.754 102.447M101.556 100.442L101.754 102.447M101.754 102.447C102.017 103.08 102.463 103.622 103.035 104.003M101.754 102.447L103.035 104.003M103.035 104.003C103.607 104.384 104.279 104.587 104.966 104.587L103.035 104.003ZM120.171 98.925C120.46 99.0441 120.722 99.219 120.944 99.4395M120.171 98.925L120.944 99.4395M120.944 99.4395C121.165 99.6601 121.34 99.9219 121.46 100.21M120.944 99.4395L121.46 100.21M121.46 100.21C121.58 100.498 121.641 100.807 121.641 101.119L121.46 100.21ZM76.3814 99.245H76.382H78.2641V112.49H76.382L76.3814 112.49C76.134 112.49 75.8891 112.442 75.6605 112.347C75.432 112.253 75.2245 112.115 75.0498 111.941C74.8751 111.767 74.7367 111.56 74.6424 111.333C74.5481 111.106 74.4997 110.862 74.5 110.616V110.616L74.5 101.119L74.5 101.119C74.4997 100.873 74.5481 100.629 74.6424 100.402C74.7367 100.174 74.8751 99.9678 75.0498 99.7937C75.2245 99.6196 75.432 99.4814 75.6605 99.3872C75.8891 99.2931 76.134 99.2447 76.3814 99.245ZM78.2641 112.99H76.382H78.2641ZM78.7641 99.245V112.49V99.245ZM76.382 98.745H78.2641L74 101.119C73.9996 100.807 74.061 100.498 74.1806 100.21C74.3001 99.9219 74.4756 99.6601 74.6968 99.4395C74.9181 99.219 75.1809 99.0441 75.47 98.925C75.7592 98.8058 76.0691 98.7446 76.382 98.745ZM113.994 95.1837V95.1838V115.363C113.993 116.489 113.544 117.569 112.745 118.366C111.945 119.163 110.861 119.611 109.73 119.612H85.9106C84.7794 119.611 83.6952 119.163 82.8958 118.366C82.0966 117.569 81.6473 116.49 81.6461 115.364C81.6461 115.364 81.6461 115.363 81.6461 115.363L81.6461 95.1838V95.1837C81.6458 94.4701 81.7867 93.7634 82.0606 93.104C82.3345 92.4446 82.7362 91.8454 83.2427 91.3405C83.7492 90.8357 84.3506 90.4352 85.0127 90.162C85.6747 89.8888 86.3843 89.7483 87.101 89.7486H87.1011H95.4382H95.9382V89.2486V84.5003C95.9382 84.0038 96.1361 83.5273 96.4889 83.1757C96.8417 82.8241 97.3206 82.6262 97.8203 82.6262C98.32 82.6262 98.7988 82.8241 99.1517 83.1757C99.5044 83.5273 99.7023 84.0038 99.7023 84.5003V89.2486V89.7486H100.202L108.539 89.7486L108.54 89.7486C109.256 89.7483 109.966 89.8888 110.628 90.162C111.29 90.4352 111.891 90.8357 112.398 91.3405C112.904 91.8454 113.306 92.4446 113.58 93.104C113.854 93.7634 113.995 94.4701 113.994 95.1837ZM93.5562 110.616V110.116H93.0562H88.2922H87.7922V110.616V112.99V113.49H88.2922H93.0562H93.5562V112.99V110.616ZM100.702 110.616V110.116H100.202H95.4382H94.9382V110.616V112.99V113.49H95.4382H100.202H100.702V112.99V110.616ZM107.848 110.616V110.116H107.348H102.584H102.084V110.616V112.99V113.49H102.584H107.348H107.848V112.99V110.616ZM121.141 101.119V101.119V110.616V110.616C121.141 110.862 121.092 111.106 120.998 111.333C120.904 111.56 120.765 111.767 120.591 111.941C120.416 112.115 120.209 112.253 119.98 112.347C119.751 112.442 119.506 112.49 119.259 112.49H119.259H117.376V99.245H119.259H119.259C119.506 99.2447 119.751 99.2931 119.98 99.3872C120.209 99.4814 120.416 99.6196 120.591 99.7937C120.765 99.9678 120.904 100.174 120.998 100.402C121.092 100.629 121.141 100.873 121.141 101.119ZM90.6742 104.587C91.1306 104.587 91.5827 104.497 92.0045 104.323C92.4263 104.149 92.8096 103.894 93.1327 103.572C93.4557 103.25 93.712 102.868 93.8869 102.447C94.0617 102.026 94.1518 101.575 94.1517 101.119L90.6742 104.587Z" fill="#EBECF4" stroke="black"/>
</g>
<g id="cap">
<path id="cap_2" d="M117.12 79.8072L117.12 79.8072L104.133 75.8306C103.33 75.5847 102.465 75.5847 101.662 75.8306L88.6756 79.8072C88.6756 79.8072 88.6756 79.8072 88.6756 79.8072C87.1081 80.287 87.1081 82.399 88.6756 82.8788L90.2909 83.3734C90.0127 83.8628 89.8308 84.4083 89.7719 84.991C89.3108 85.343 88.9896 85.8904 88.9896 86.5402C88.9896 87.0976 89.2294 87.5727 89.5808 87.9174L88.4582 92.9521L88.9462 93.0609L88.4582 92.9521C88.2848 93.7298 88.8785 94.4644 89.673 94.4644H92.2852C93.0799 94.4644 93.6739 93.73 93.5005 92.9521L93.0124 93.0609L93.5005 92.9521L92.3778 87.9174C92.7293 87.5727 92.9691 87.0976 92.9691 86.5402C92.9691 85.93 92.6843 85.4139 92.2719 85.0628C92.3449 84.7065 92.5308 84.3879 92.8049 84.1436L101.662 86.8558L101.662 86.8559C102.14 87.0021 103.057 87.1851 104.133 86.8559L104.133 86.8559L117.12 82.8793L117.12 82.8792C118.688 82.3989 118.688 80.2876 117.12 79.8072ZM101.517 87.3191L101.517 87.3191L94.7655 85.2519L94.1969 85.0778L94.123 85.6678L93.4628 90.9325L93.4589 90.9635V90.9947C93.4589 91.6243 93.8434 92.144 94.3525 92.5439C94.8674 92.9484 95.5815 93.2908 96.4194 93.5691C98.1002 94.1275 100.391 94.4644 102.898 94.4644C105.405 94.4644 107.695 94.1275 109.376 93.5691C110.214 93.2908 110.928 92.9484 111.443 92.5439C111.952 92.144 112.336 91.6243 112.336 90.9947V90.9635L112.332 90.9325L111.672 85.6673L111.598 85.0773L111.03 85.2515L104.278 87.3191C104.278 87.3191 104.278 87.3191 104.278 87.3191C103.078 87.6864 102.054 87.4836 101.517 87.3191Z" fill="#EBECF4" stroke="black"/>
</g>
</g>
<g id="mobile-android">
<g id="android">
<path id="android_2" d="M61.6819 108.738C61.5501 108.738 61.4212 108.693 61.3116 108.61C61.2019 108.527 61.1165 108.408 61.066 108.27C61.0156 108.132 61.0024 107.979 61.0281 107.832C61.0538 107.685 61.1173 107.55 61.2105 107.444C61.3038 107.338 61.4226 107.266 61.5519 107.237C61.6812 107.207 61.8152 107.222 61.9371 107.28C62.0589 107.337 62.163 107.434 62.2363 107.559C62.3095 107.684 62.3486 107.83 62.3486 107.98C62.3486 108.181 62.2784 108.374 62.1533 108.516C62.0283 108.658 61.8588 108.738 61.6819 108.738ZM54.3181 108.738C54.1862 108.738 54.0573 108.693 53.9477 108.61C53.838 108.527 53.7526 108.408 53.7021 108.27C53.6517 108.132 53.6385 107.979 53.6642 107.832C53.6899 107.685 53.7534 107.55 53.8467 107.444C53.9399 107.338 54.0587 107.266 54.188 107.237C54.3173 107.207 54.4514 107.222 54.5732 107.28C54.695 107.337 54.7991 107.434 54.8724 107.559C54.9456 107.684 54.9847 107.83 54.9847 107.98C54.9847 108.181 54.9145 108.374 54.7895 108.516C54.6644 108.658 54.4949 108.738 54.3181 108.738ZM61.9208 104.176L63.2525 101.555C63.2737 101.519 63.2882 101.478 63.295 101.436C63.3019 101.393 63.301 101.35 63.2925 101.308C63.2839 101.266 63.2678 101.226 63.2452 101.191C63.2226 101.156 63.1939 101.127 63.161 101.106C63.1281 101.084 63.0917 101.07 63.0539 101.065C63.0161 101.06 62.9778 101.064 62.9414 101.077C62.9051 101.089 62.8713 101.11 62.8423 101.138C62.8133 101.166 62.7896 101.2 62.7728 101.239L61.4244 103.894C60.3474 103.345 59.1804 103.061 58 103.061C56.8196 103.061 55.6526 103.345 54.5756 103.894L53.2272 101.239C53.2104 101.2 53.1867 101.166 53.1577 101.138C53.1287 101.11 53.0949 101.089 53.0586 101.077C53.0222 101.064 52.9839 101.06 52.9461 101.065C52.9083 101.07 52.8719 101.084 52.839 101.106C52.8061 101.127 52.7774 101.156 52.7548 101.191C52.7322 101.226 52.7161 101.266 52.7075 101.308C52.699 101.35 52.6981 101.393 52.705 101.436C52.7118 101.478 52.7263 101.519 52.7475 101.555L54.0792 104.176C51.7925 105.589 50.2289 108.221 50 111.329H66C65.7711 108.221 64.2072 105.589 61.9208 104.176Z" fill="#A4C639"/>
</g>
<g id="mobile">
<path id="mobile_2" d="M49.5345 83.6229H66.029C67.7058 83.6229 69.0636 84.9786 69.0636 86.6457V117.177C69.0636 118.844 67.7058 120.199 66.029 120.199H49.5345C47.8577 120.199 46.5 118.844 46.5 117.177V86.6457C46.5 84.9786 47.8577 83.6229 49.5345 83.6229ZM54.9254 116.002C54.9254 117.579 56.2039 118.851 57.7818 118.851C59.3597 118.851 60.6381 117.579 60.6381 116.002C60.6381 114.426 59.3597 113.154 57.7818 113.154C56.2039 113.154 54.9254 114.426 54.9254 116.002ZM65.1454 111.805C65.906 111.805 66.529 111.187 66.529 110.425V87.5264C66.529 86.7643 65.906 86.1457 65.1454 86.1457H50.4182C49.6576 86.1457 49.0345 86.7643 49.0345 87.5264V110.425C49.0345 111.187 49.6576 111.805 50.4182 111.805H65.1454Z" fill="#EBECF4" stroke="black"/>
</g>
</g>
<g id="anim-fundamental-stack">
<g id="js">
<path id="js_2" d="M35.7143 80.1329H4.28571C1.91964 80.1329 0 82.0461 0 84.4043V115.729C0 118.087 1.91964 120 4.28571 120H35.7143C38.0804 120 40 118.087 40 115.729V84.4043C40 82.0461 38.0804 80.1329 35.7143 80.1329ZM21.7679 111.226C21.7679 115.106 19.4821 116.876 16.1518 116.876C13.1429 116.876 11.4018 115.328 10.5089 113.45L13.5714 111.608C14.1607 112.649 14.6964 113.53 15.9911 113.53C17.2232 113.53 18.0089 113.05 18.0089 111.172V98.4379H21.7679V111.226ZM30.6607 116.876C27.1696 116.876 24.9107 115.221 23.8125 113.05L26.875 111.288C27.6786 112.596 28.7321 113.566 30.5804 113.566C32.1339 113.566 33.1339 112.792 33.1339 111.715C33.1339 110.434 32.1161 109.98 30.3929 109.223L29.4554 108.823C26.7411 107.675 24.9464 106.224 24.9464 103.172C24.9464 100.36 27.0982 98.2244 30.4464 98.2244C32.8393 98.2244 34.5536 99.052 35.7857 101.223L32.8571 103.092C32.2143 101.944 31.5179 101.49 30.4375 101.49C29.3393 101.49 28.6429 102.184 28.6429 103.092C28.6429 104.213 29.3393 104.667 30.9554 105.37L31.8929 105.771C35.0893 107.132 36.8839 108.529 36.8839 111.662C36.8839 115.025 34.2232 116.876 30.6607 116.876Z" fill="#F0DB4F"/>
</g>
<g id="html5">
<path id="html5_2" d="M3 40.2658L6.11607 75.4877L20.0982 80.1329L34.1696 75.4877L37.2857 40.2658H3ZM30.5179 51.6475H14.1071L14.4732 56.0436H30.1518L28.9375 69.2496L20.1964 71.6523V71.679H20.0982L11.2857 69.2496L10.75 62.5042H15.0089L15.3214 65.8947L20.0982 67.185L24.8929 65.8947L25.4286 60.3595H10.5268L9.38393 47.4027H30.9107L30.5179 51.6475Z" fill="#E34C26"/>
</g>
<g id="css3">
<path id="css3_2" d="M45.8571 0.398682L40.1429 33.1467L20.2054 40.2658L3 33.1467L4.75 24.7105H12.0714L11.3571 28.3235L21.75 32.2746L33.7232 28.3235L35.4018 19.6826H5.63393L7.0625 12.3855H36.8571L37.7946 7.69579H8.02679L9.48214 0.398682H45.8571Z" fill="#264DE4"/>
</g>
</g>
</g>
</svg>
