<svg width="360" height="120" viewBox="0 0 360 120" fill="none" xmlns="http://www.w3.org/2000/svg">
<g id="illustration_respite">
<g id="backend-stack">
<g id="server">
<path id="server_2" d="M356.696 89.0221H314.98C313.605 89.0221 312.5 87.9218 312.5 86.5768V80.6862C312.5 79.3411 313.605 78.2408 314.98 78.2408H356.696C358.071 78.2408 359.176 79.3411 359.176 80.6862V86.5768C359.176 87.9218 358.071 89.0221 356.696 89.0221ZM352.227 80.9225C350.722 80.9225 349.492 82.1298 349.492 83.6315C349.492 85.1331 350.722 86.3404 352.227 86.3404C353.732 86.3404 354.961 85.1331 354.961 83.6315C354.961 82.1298 353.732 80.9225 352.227 80.9225ZM346.267 80.9225C344.762 80.9225 343.532 82.1298 343.532 83.6315C343.532 85.1331 344.762 86.3404 346.267 86.3404C347.772 86.3404 349.002 85.1331 349.002 83.6315C349.002 82.1298 347.772 80.9225 346.267 80.9225ZM356.696 103.749H314.98C313.605 103.749 312.5 102.648 312.5 101.303V95.4127C312.5 94.0677 313.605 92.9674 314.98 92.9674H356.696C358.071 92.9674 359.176 94.0677 359.176 95.4127V101.303C359.176 102.648 358.071 103.749 356.696 103.749ZM352.227 95.649C350.722 95.649 349.492 96.8564 349.492 98.358C349.492 99.8596 350.722 101.067 352.227 101.067C353.732 101.067 354.961 99.8596 354.961 98.358C354.961 96.8564 353.732 95.649 352.227 95.649ZM346.267 95.649C344.762 95.649 343.532 96.8564 343.532 98.358C343.532 99.8596 344.762 101.067 346.267 101.067C347.772 101.067 349.002 99.8596 349.002 98.358C349.002 96.8564 347.772 95.649 346.267 95.649ZM356.696 118.475H314.98C313.605 118.475 312.5 117.375 312.5 116.03V110.139C312.5 108.794 313.605 107.694 314.98 107.694H356.696C358.071 107.694 359.176 108.794 359.176 110.139V116.03C359.176 117.375 358.071 118.475 356.696 118.475ZM352.227 110.376C350.722 110.376 349.492 111.583 349.492 113.085C349.492 114.586 350.722 115.793 352.227 115.793C353.732 115.793 354.961 114.586 354.961 113.085C354.961 111.583 353.732 110.376 352.227 110.376ZM346.267 110.376C344.762 110.376 343.532 111.583 343.532 113.085C343.532 114.586 344.762 115.793 346.267 115.793C347.772 115.793 349.002 114.586 349.002 113.085C349.002 111.583 347.772 110.376 346.267 110.376Z" fill="#EBECF4" stroke="black"/>
</g>
<g id="database">
<path id="database_2" d="M307.726 89.452V92.6014C307.726 93.0689 307.431 93.6011 306.695 94.162C305.967 94.7169 304.883 95.2386 303.498 95.686C300.734 96.5788 296.885 97.1405 292.613 97.1405C288.341 97.1405 284.492 96.5788 281.728 95.686C280.343 95.2386 279.258 94.7169 278.531 94.162C277.795 93.6011 277.5 93.0689 277.5 92.6014V89.452C277.5 88.9845 277.795 88.4522 278.531 87.8913C279.258 87.3364 280.343 86.8147 281.728 86.3674C284.492 85.4745 288.341 84.9128 292.613 84.9128C296.885 84.9128 300.734 85.4745 303.498 86.3674C304.883 86.8147 305.967 87.3364 306.695 87.8913C307.431 88.4522 307.726 88.9845 307.726 89.452ZM307.726 97.436V103.624C307.726 104.092 307.431 104.624 306.695 105.185C305.967 105.74 304.883 106.262 303.498 106.709C300.734 107.602 296.885 108.164 292.613 108.164C288.341 108.164 284.492 107.602 281.728 106.709C280.343 106.262 279.258 105.74 278.531 105.185C277.795 104.624 277.5 104.092 277.5 103.624V97.436C279.169 98.3808 281.307 99.0787 283.67 99.5577C286.428 100.117 289.526 100.385 292.613 100.385C295.699 100.385 298.798 100.117 301.555 99.5577C303.918 99.0787 306.057 98.3808 307.726 97.436ZM301.555 110.581C303.918 110.102 306.057 109.404 307.726 108.459V114.648C307.726 115.115 307.431 115.647 306.695 116.208C305.967 116.763 304.883 117.285 303.498 117.732C300.734 118.625 296.885 119.187 292.613 119.187C288.341 119.187 284.492 118.625 281.728 117.732C280.343 117.285 279.258 116.763 278.531 116.208C277.795 115.647 277.5 115.115 277.5 114.648V108.459C279.169 109.404 281.307 110.102 283.67 110.581C286.428 111.14 289.526 111.408 292.613 111.408C295.699 111.408 298.798 111.14 301.555 110.581Z" fill="#EBECF4" stroke="black"/>
</g>
<g id="cloud">
<path id="cloud_2" d="M347.552 43.1977L347.337 43.7523L347.92 43.8688C352.042 44.6919 355.141 48.2973 355.141 52.6051C355.141 57.5255 351.105 61.5231 346.112 61.5231H318.719C313.072 61.5231 308.5 56.9957 308.5 51.4279C308.5 47.0296 311.348 43.2837 315.325 41.9009L315.674 41.7794L315.661 41.4099C315.653 41.2097 315.646 41.0204 315.646 40.8326C315.646 34.61 320.747 29.5602 327.056 29.5602C331.287 29.5602 334.974 31.8303 336.949 35.2132L337.216 35.6705L337.657 35.3778C338.709 34.68 339.983 34.2692 341.348 34.2692C345.023 34.2692 347.994 37.2146 347.994 40.8326C347.994 41.6665 347.835 42.4662 347.552 43.1977ZM321.592 48.3961H325.961V56.1368C325.961 57.0659 326.726 57.8141 327.652 57.8141H331.225C332.15 57.8141 332.916 57.0659 332.916 56.1368V48.3961H337.284C338.773 48.3961 339.557 46.5994 338.477 45.5318L330.631 37.7767C329.975 37.128 328.902 37.128 328.246 37.7767L320.4 45.5318C319.322 46.597 320.092 48.3961 321.592 48.3961Z" fill="#EBECF4" stroke="black"/>
</g>
</g>
<g id="gits">
<g id="git">
<path id="git_2" d="M163.043 41.6876L163.105 41.7035H163.169H167.976L167.977 43.0252L165.937 43.1783L165.002 43.2485L165.581 43.9859C166.031 44.559 166.478 45.3126 166.478 46.3938C166.478 47.5753 166.13 48.4123 165.614 49.0141C165.091 49.6239 164.362 50.0297 163.543 50.2817C161.89 50.7908 160.002 50.6322 159.167 50.4027L158.809 50.3044L158.611 50.6181L157.712 52.0437L157.262 52.7585L158.105 52.8094C158.645 52.842 159.159 52.8712 159.649 52.899C160.786 52.9635 161.792 53.0207 162.685 53.0955C163.964 53.2027 164.966 53.3432 165.735 53.5784C166.499 53.8117 166.988 54.1244 167.296 54.5455C167.606 54.9682 167.783 55.5684 167.783 56.4779C167.783 57.8498 167.187 58.9038 166.047 59.638C164.881 60.3892 163.119 60.8188 160.802 60.8188C158.363 60.8188 156.763 60.5093 155.788 59.9927C155.31 59.7391 154.995 59.4424 154.797 59.1181C154.6 58.7944 154.5 58.4122 154.5 57.957C154.5 57.4371 154.614 57.0637 154.82 56.723C155.036 56.3651 155.364 56.0231 155.839 55.5814L156.408 55.0529L155.692 54.7537C155.326 54.6011 155.115 54.4037 154.99 54.1994C154.863 53.9911 154.802 53.7378 154.802 53.4415C154.802 53.09 154.93 52.7657 155.296 52.3213C155.676 51.8597 156.262 51.3285 157.114 50.5568L157.664 50.0586L156.995 49.736C155.836 49.176 154.936 47.9564 154.936 46.151C154.936 44.8838 155.285 43.9612 155.817 43.286C156.353 42.6054 157.103 42.1395 157.962 41.8417C159.696 41.2405 161.775 41.3588 163.043 41.6876ZM157.952 55.4425L157.695 55.4252L157.532 55.6244L157.526 55.6318C157.192 56.0385 156.711 56.6254 156.711 57.3663C156.711 58.2039 157.452 58.6849 158.135 58.9366C158.868 59.2067 159.81 59.3279 160.727 59.3172C161.643 59.3065 162.588 59.1635 163.322 58.8645C164.023 58.5795 164.731 58.0606 164.731 57.2055C164.731 56.8404 164.624 56.4808 164.277 56.2189C163.984 55.9978 163.572 55.8924 163.101 55.8202C162.442 55.7194 161.464 55.6603 160.079 55.5766C159.456 55.5389 158.749 55.4963 157.952 55.4425ZM182.976 37.0624C182.975 37.7996 182.971 38.3896 182.968 38.8605C182.964 39.5539 182.961 39.9892 182.97 40.2566C182.975 40.3809 182.982 40.4919 182.997 40.5849C183.009 40.662 183.038 40.8102 183.142 40.9392C183.282 41.1129 183.467 41.1487 183.574 41.1536C183.614 41.1554 183.651 41.1533 183.666 41.1525L183.669 41.1524C183.688 41.1513 183.692 41.1512 183.695 41.1512H187.029V42.8402H183.476H182.976V43.3402V49.7668C182.976 49.7787 182.976 49.7982 182.975 49.8241C182.971 49.9508 182.962 50.2312 182.997 50.5252C183.04 50.8867 183.155 51.3495 183.467 51.7455C184.095 52.5414 185.267 52.8017 187.206 52.1833L187.657 53.6361C186.566 54.101 185.126 54.4848 183.83 54.4848C182.259 54.4848 181.307 54.1689 180.736 53.6042C180.167 53.0413 179.868 52.1244 179.868 50.6546V43.6088C179.868 43.6052 179.868 43.6002 179.868 43.5941C179.868 43.5634 179.869 43.5045 179.865 43.4574C179.861 43.3936 179.845 43.2667 179.762 43.1404C179.672 43.0033 179.546 42.9321 179.442 42.8951C179.348 42.8616 179.251 42.8488 179.172 42.842C179.015 42.8282 178.79 42.8291 178.498 42.8318C178.439 42.8324 178.377 42.833 178.31 42.8337C178.148 42.8354 177.961 42.8374 177.746 42.8387V41.3805C178.803 41.1986 179.635 40.8025 180.24 40.0698C180.841 39.3411 181.165 38.34 181.336 37.0624H182.976ZM160.911 43.0956C158.904 43.0956 157.785 44.4959 157.749 45.9367C157.731 46.6472 157.977 47.3694 158.507 47.9156C159.042 48.4667 159.831 48.8029 160.83 48.8029C161.82 48.8029 162.602 48.4651 163.136 47.9162C163.665 47.373 163.92 46.6555 163.919 45.949C163.919 45.243 163.664 44.5281 163.149 43.9865C162.627 43.4383 161.866 43.0956 160.911 43.0956ZM170.251 54.4518V53.2673C170.355 53.2543 170.45 53.2426 170.539 53.2317C170.654 53.2175 170.758 53.2047 170.856 53.192C171.101 53.1602 171.322 53.1279 171.492 53.0713C171.69 53.0057 171.9 52.8795 172.005 52.618C172.075 52.4435 172.075 52.2438 172.075 52.1236C172.074 52.1156 172.074 52.1079 172.074 52.1006V44.1949C172.074 44.055 172.071 43.8494 171.977 43.6551C171.871 43.4353 171.693 43.3084 171.523 43.2213C171.362 43.1391 171.151 43.0648 170.908 42.9824C170.83 42.9563 170.748 42.9288 170.658 42.899C170.55 42.863 170.432 42.8237 170.303 42.7799L170.487 41.4416H175.184V52.102C175.184 52.2065 175.185 52.3224 175.199 52.4265C175.213 52.5331 175.247 52.6829 175.354 52.8201C175.466 52.9633 175.61 53.0325 175.725 53.0698C175.832 53.1043 175.95 53.1223 176.053 53.136C176.053 53.136 176.053 53.1361 176.054 53.1361L177.007 53.2652V54.4518H170.251ZM173.262 38.2903C172.581 38.2903 172.109 38.0968 171.807 37.799C171.507 37.5019 171.313 37.0379 171.313 36.3686C171.313 35.6997 171.506 35.2537 171.801 34.9719C172.1 34.6867 172.572 34.5023 173.262 34.5023C173.967 34.5023 174.446 34.6882 174.747 34.9739C175.045 35.2557 175.238 35.701 175.238 36.3686C175.238 37.0367 175.044 37.4998 174.741 37.7969C174.437 38.0952 173.958 38.2903 173.262 38.2903Z" fill="#EBECF4" stroke="black"/>
</g>
<g id="gitbranch">
<path id="gitbranch_2" d="M159 38.162C159 34.8626 156.296 32.1902 152.958 32.1902C149.62 32.1902 146.917 34.8626 146.917 38.162C146.917 40.8792 148.752 43.1709 151.259 43.895C151.214 45.0968 150.942 46.0224 150.428 46.6495C149.265 48.0827 146.705 48.3216 143.994 48.5679C141.864 48.762 139.659 48.971 137.854 49.8295V39.0802C140.309 38.3188 142.083 36.0569 142.083 33.3845C142.083 30.0851 139.38 27.4127 136.042 27.4127C132.704 27.4127 130 30.0851 130 33.3845C130 36.0569 131.775 38.3188 134.229 39.0802V53.9575C131.775 54.7264 130 56.9882 130 59.6606C130 62.96 132.704 65.6324 136.042 65.6324C139.38 65.6324 142.083 62.96 142.083 59.6606C142.083 57.1226 140.482 54.9503 138.217 54.0919C138.451 53.7037 138.806 53.3603 139.342 53.0916C140.565 52.4795 142.393 52.3153 144.334 52.1361C147.521 51.845 151.131 51.5091 153.26 48.8964C154.318 47.5975 154.854 45.9254 154.892 43.8278C157.278 43.0216 159 40.7896 159 38.162ZM136.042 32.1902C136.706 32.1902 137.25 32.7276 137.25 33.3845C137.25 34.0415 136.706 34.5789 136.042 34.5789C135.377 34.5789 134.833 34.0415 134.833 33.3845C134.833 32.7276 135.377 32.1902 136.042 32.1902ZM136.042 60.855C135.377 60.855 134.833 60.3175 134.833 59.6606C134.833 59.0037 135.377 58.4662 136.042 58.4662C136.706 58.4662 137.25 59.0037 137.25 59.6606C137.25 60.3175 136.706 60.855 136.042 60.855ZM152.958 36.9676C153.623 36.9676 154.167 37.5051 154.167 38.162C154.167 38.8189 153.623 39.3564 152.958 39.3564C152.294 39.3564 151.75 38.8189 151.75 38.162C151.75 37.5051 152.294 36.9676 152.958 36.9676Z" fill="#F1502F"/>
</g>
</g>
<g id="laptop-react">
<g id="laptop">
<path id="laptop_2" d="M209.6 96.1564H210.1V95.6564V64.5205V64.0205H209.6H142.4H141.9V64.5205V95.6564V96.1564H142.4H209.6ZM122.8 107.832H164.207C164.379 108.769 165.068 109.668 165.995 110.345C167.111 111.159 168.658 111.724 170.4 111.724H181.04C182.69 111.724 184.192 111.338 185.314 110.6C186.315 109.942 187.015 109 187.216 107.832H229.2C229.88 107.832 230.478 108.026 230.892 108.315C231.309 108.604 231.5 108.954 231.5 109.278V111.224C231.5 113.154 230.364 114.963 228.425 116.311C226.488 117.657 223.79 118.508 220.8 118.508H131.2C128.21 118.508 125.512 117.657 123.575 116.311C121.636 114.963 120.5 113.154 120.5 111.224V109.278C120.5 108.954 120.691 108.604 121.108 108.315C121.522 108.026 122.12 107.832 122.8 107.832ZM212.4 57.2365C214.62 57.2365 216.618 57.8685 218.047 58.862C219.479 59.8572 220.3 61.1799 220.3 62.5745V102.94H131.7V62.5745C131.7 61.1799 132.521 59.8572 133.953 58.862C135.382 57.8685 137.38 57.2365 139.6 57.2365H212.4Z" fill="#EBECF4" stroke="black"/>
</g>
<g id="react">
<g id="react_2">
<mask id="path-7-inside-1_97_427" fill="white">
<path d="M189.421 75.0422C189.067 74.9256 188.713 74.8154 188.359 74.7117C188.418 74.4719 188.47 74.2321 188.523 73.9923C189.329 70.1296 188.798 67.0251 187.008 66.0011C185.283 65.0225 182.471 66.04 179.625 68.4899C179.343 68.7297 179.068 68.9824 178.805 69.2352C178.628 69.0667 178.445 68.8982 178.261 68.7361C175.278 66.1178 172.288 65.016 170.498 66.0465C168.78 67.0316 168.268 69.9546 168.99 73.6099C169.062 73.9728 169.14 74.3293 169.232 74.6922C168.813 74.8089 168.4 74.9385 168.013 75.0746C164.511 76.2736 162 78.1661 162 80.1234C162 82.1455 164.675 84.1741 168.314 85.4055C168.609 85.5027 168.904 85.5999 169.206 85.6842C169.108 86.073 169.022 86.4554 168.944 86.8507C168.255 90.4477 168.793 93.2994 170.511 94.2781C172.281 95.2891 175.258 94.2521 178.156 91.744C178.386 91.543 178.615 91.3357 178.845 91.1153C179.133 91.394 179.435 91.6597 179.736 91.919C182.543 94.304 185.316 95.2697 187.028 94.291C188.798 93.28 189.375 90.2144 188.627 86.4813C188.568 86.1962 188.503 85.9045 188.431 85.6064C188.641 85.5481 188.844 85.4832 189.047 85.4184C192.83 84.1805 195.571 82.1779 195.571 80.1234C195.571 78.1596 192.988 76.2542 189.421 75.0422ZM180.549 69.5398C182.989 67.4399 185.264 66.6168 186.3 67.2066C187.408 67.8353 187.834 70.3758 187.139 73.7136C187.093 73.934 187.047 74.1478 186.988 74.3617C185.533 74.0377 184.057 73.8043 182.575 73.6747C181.723 72.4692 180.792 71.3156 179.782 70.2333C180.038 69.9935 180.287 69.7666 180.549 69.5398ZM172.963 83.4871C173.297 84.0509 173.638 84.6148 173.999 85.1657C172.976 85.0555 171.96 84.8935 170.957 84.6796C171.245 83.7463 171.606 82.7806 172.025 81.7955C172.327 82.3658 172.635 82.9297 172.963 83.4871ZM170.976 75.6903C171.921 75.4829 172.924 75.3144 173.966 75.1848C173.619 75.7227 173.278 76.2736 172.957 76.831C172.635 77.3819 172.321 77.9457 172.025 78.5161C171.612 77.5504 171.265 76.6042 170.976 75.6903ZM172.773 80.1558C173.206 79.2614 173.678 78.3865 174.176 77.5245C174.674 76.6625 175.212 75.8264 175.776 75.0033C176.76 74.932 177.763 74.8932 178.786 74.8932C179.808 74.8932 180.818 74.932 181.795 75.0033C182.353 75.82 182.884 76.656 183.389 77.5115C183.893 78.367 184.365 79.242 184.811 80.1299C184.372 81.0243 183.9 81.9057 183.395 82.7742C182.897 83.6361 182.366 84.4722 181.808 85.3018C180.831 85.3731 179.815 85.4055 178.786 85.4055C177.756 85.4055 176.76 85.3731 175.796 85.3147C175.225 84.4916 174.688 83.6491 174.183 82.7871C173.678 81.9251 173.212 81.0502 172.773 80.1558ZM184.615 83.4741C184.949 82.9038 185.264 82.327 185.572 81.7437C185.992 82.6834 186.359 83.6361 186.68 84.6148C185.664 84.8416 184.634 85.0166 183.598 85.1333C183.952 84.5889 184.287 84.0315 184.615 83.4741ZM185.559 78.5161C185.251 77.9457 184.936 77.3754 184.608 76.818C184.287 76.2671 183.952 75.7227 183.605 75.1848C184.661 75.3144 185.67 75.4894 186.614 75.7033C186.313 76.6625 185.959 77.5958 185.559 78.5161ZM178.799 71.2249C179.487 71.9637 180.136 72.7414 180.74 73.5451C179.441 73.4868 178.136 73.4868 176.838 73.5451C177.481 72.709 178.143 71.9313 178.799 71.2249ZM171.193 67.252C172.294 66.6168 174.74 67.5242 177.317 69.7796C177.481 69.9222 177.645 70.0777 177.815 70.2333C176.799 71.3156 175.861 72.4692 175.002 73.6747C173.52 73.8043 172.052 74.0312 170.596 74.3487C170.511 74.0182 170.439 73.6812 170.367 73.3442C169.75 70.2073 170.157 67.8417 171.193 67.252ZM169.586 84.3361C169.311 84.2583 169.042 84.1741 168.773 84.0833C167.377 83.6491 165.79 82.9621 164.642 82.0612C163.98 81.6076 163.534 80.9076 163.41 80.1234C163.41 78.9374 165.482 77.4208 168.472 76.3903C168.845 76.2607 169.226 76.144 169.606 76.0338C170.052 77.4402 170.59 78.8207 171.212 80.1558C170.583 81.5103 170.039 82.9103 169.586 84.3361ZM177.232 90.6875C176.15 91.6662 174.897 92.4439 173.534 92.9754C172.806 93.3189 171.966 93.3513 171.219 93.0596C170.176 92.4634 169.744 90.1755 170.334 87.097C170.406 86.7341 170.485 86.3711 170.576 86.0147C172.045 86.3258 173.527 86.5397 175.029 86.6498C175.894 87.8618 176.845 89.0219 177.861 90.1107C177.651 90.3116 177.441 90.5061 177.232 90.6875ZM178.838 89.1126C178.169 88.3997 177.5 87.609 176.851 86.76C177.481 86.7859 178.13 86.7989 178.786 86.7989C179.461 86.7989 180.123 86.7859 180.779 86.7535C180.176 87.5766 179.527 88.3608 178.838 89.1126ZM187.408 91.057C187.349 91.8477 186.955 92.5865 186.326 93.0855C185.283 93.6818 183.061 92.9041 180.661 90.869C180.385 90.6357 180.11 90.3829 179.828 90.1237C180.831 89.0284 181.756 87.8683 182.595 86.6498C184.097 86.5267 185.592 86.2999 187.067 85.9693C187.132 86.235 187.192 86.5008 187.244 86.76C187.565 88.1599 187.618 89.6182 187.408 91.057ZM188.601 84.0898C188.418 84.1481 188.234 84.2065 188.044 84.2583C187.585 82.8454 187.021 81.465 186.372 80.1234C187.001 78.8012 187.532 77.4402 187.978 76.0468C188.319 76.144 188.647 76.2477 188.962 76.3514C192.017 77.3884 194.161 78.9309 194.161 80.1104C194.161 81.3807 191.873 83.0204 188.601 84.0898ZM178.786 83.1176C180.444 83.1176 181.789 81.789 181.789 80.1493C181.789 78.5096 180.444 77.181 178.786 77.181C177.127 77.181 175.783 78.5096 175.783 80.1493C175.783 81.789 177.127 83.1176 178.786 83.1176Z"/>
</mask>
<path d="M189.421 75.0422C189.067 74.9256 188.713 74.8154 188.359 74.7117C188.418 74.4719 188.47 74.2321 188.523 73.9923C189.329 70.1296 188.798 67.0251 187.008 66.0011C185.283 65.0225 182.471 66.04 179.625 68.4899C179.343 68.7297 179.068 68.9824 178.805 69.2352C178.628 69.0667 178.445 68.8982 178.261 68.7361C175.278 66.1178 172.288 65.016 170.498 66.0465C168.78 67.0316 168.268 69.9546 168.99 73.6099C169.062 73.9728 169.14 74.3293 169.232 74.6922C168.813 74.8089 168.4 74.9385 168.013 75.0746C164.511 76.2736 162 78.1661 162 80.1234C162 82.1455 164.675 84.1741 168.314 85.4055C168.609 85.5027 168.904 85.5999 169.206 85.6842C169.108 86.073 169.022 86.4554 168.944 86.8507C168.255 90.4477 168.793 93.2994 170.511 94.2781C172.281 95.2891 175.258 94.2521 178.156 91.744C178.386 91.543 178.615 91.3357 178.845 91.1153C179.133 91.394 179.435 91.6597 179.736 91.919C182.543 94.304 185.316 95.2697 187.028 94.291C188.798 93.28 189.375 90.2144 188.627 86.4813C188.568 86.1962 188.503 85.9045 188.431 85.6064C188.641 85.5481 188.844 85.4832 189.047 85.4184C192.83 84.1805 195.571 82.1779 195.571 80.1234C195.571 78.1596 192.988 76.2542 189.421 75.0422ZM180.549 69.5398C182.989 67.4399 185.264 66.6168 186.3 67.2066C187.408 67.8353 187.834 70.3758 187.139 73.7136C187.093 73.934 187.047 74.1478 186.988 74.3617C185.533 74.0377 184.057 73.8043 182.575 73.6747C181.723 72.4692 180.792 71.3156 179.782 70.2333C180.038 69.9935 180.287 69.7666 180.549 69.5398ZM172.963 83.4871C173.297 84.0509 173.638 84.6148 173.999 85.1657C172.976 85.0555 171.96 84.8935 170.957 84.6796C171.245 83.7463 171.606 82.7806 172.025 81.7955C172.327 82.3658 172.635 82.9297 172.963 83.4871ZM170.976 75.6903C171.921 75.4829 172.924 75.3144 173.966 75.1848C173.619 75.7227 173.278 76.2736 172.957 76.831C172.635 77.3819 172.321 77.9457 172.025 78.5161C171.612 77.5504 171.265 76.6042 170.976 75.6903ZM172.773 80.1558C173.206 79.2614 173.678 78.3865 174.176 77.5245C174.674 76.6625 175.212 75.8264 175.776 75.0033C176.76 74.932 177.763 74.8932 178.786 74.8932C179.808 74.8932 180.818 74.932 181.795 75.0033C182.353 75.82 182.884 76.656 183.389 77.5115C183.893 78.367 184.365 79.242 184.811 80.1299C184.372 81.0243 183.9 81.9057 183.395 82.7742C182.897 83.6361 182.366 84.4722 181.808 85.3018C180.831 85.3731 179.815 85.4055 178.786 85.4055C177.756 85.4055 176.76 85.3731 175.796 85.3147C175.225 84.4916 174.688 83.6491 174.183 82.7871C173.678 81.9251 173.212 81.0502 172.773 80.1558ZM184.615 83.4741C184.949 82.9038 185.264 82.327 185.572 81.7437C185.992 82.6834 186.359 83.6361 186.68 84.6148C185.664 84.8416 184.634 85.0166 183.598 85.1333C183.952 84.5889 184.287 84.0315 184.615 83.4741ZM185.559 78.5161C185.251 77.9457 184.936 77.3754 184.608 76.818C184.287 76.2671 183.952 75.7227 183.605 75.1848C184.661 75.3144 185.67 75.4894 186.614 75.7033C186.313 76.6625 185.959 77.5958 185.559 78.5161ZM178.799 71.2249C179.487 71.9637 180.136 72.7414 180.74 73.5451C179.441 73.4868 178.136 73.4868 176.838 73.5451C177.481 72.709 178.143 71.9313 178.799 71.2249ZM171.193 67.252C172.294 66.6168 174.74 67.5242 177.317 69.7796C177.481 69.9222 177.645 70.0777 177.815 70.2333C176.799 71.3156 175.861 72.4692 175.002 73.6747C173.52 73.8043 172.052 74.0312 170.596 74.3487C170.511 74.0182 170.439 73.6812 170.367 73.3442C169.75 70.2073 170.157 67.8417 171.193 67.252ZM169.586 84.3361C169.311 84.2583 169.042 84.1741 168.773 84.0833C167.377 83.6491 165.79 82.9621 164.642 82.0612C163.98 81.6076 163.534 80.9076 163.41 80.1234C163.41 78.9374 165.482 77.4208 168.472 76.3903C168.845 76.2607 169.226 76.144 169.606 76.0338C170.052 77.4402 170.59 78.8207 171.212 80.1558C170.583 81.5103 170.039 82.9103 169.586 84.3361ZM177.232 90.6875C176.15 91.6662 174.897 92.4439 173.534 92.9754C172.806 93.3189 171.966 93.3513 171.219 93.0596C170.176 92.4634 169.744 90.1755 170.334 87.097C170.406 86.7341 170.485 86.3711 170.576 86.0147C172.045 86.3258 173.527 86.5397 175.029 86.6498C175.894 87.8618 176.845 89.0219 177.861 90.1107C177.651 90.3116 177.441 90.5061 177.232 90.6875ZM178.838 89.1126C178.169 88.3997 177.5 87.609 176.851 86.76C177.481 86.7859 178.13 86.7989 178.786 86.7989C179.461 86.7989 180.123 86.7859 180.779 86.7535C180.176 87.5766 179.527 88.3608 178.838 89.1126ZM187.408 91.057C187.349 91.8477 186.955 92.5865 186.326 93.0855C185.283 93.6818 183.061 92.9041 180.661 90.869C180.385 90.6357 180.11 90.3829 179.828 90.1237C180.831 89.0284 181.756 87.8683 182.595 86.6498C184.097 86.5267 185.592 86.2999 187.067 85.9693C187.132 86.235 187.192 86.5008 187.244 86.76C187.565 88.1599 187.618 89.6182 187.408 91.057ZM188.601 84.0898C188.418 84.1481 188.234 84.2065 188.044 84.2583C187.585 82.8454 187.021 81.465 186.372 80.1234C187.001 78.8012 187.532 77.4402 187.978 76.0468C188.319 76.144 188.647 76.2477 188.962 76.3514C192.017 77.3884 194.161 78.9309 194.161 80.1104C194.161 81.3807 191.873 83.0204 188.601 84.0898ZM178.786 83.1176C180.444 83.1176 181.789 81.789 181.789 80.1493C181.789 78.5096 180.444 77.181 178.786 77.181C177.127 77.181 175.783 78.5096 175.783 80.1493C175.783 81.789 177.127 83.1176 178.786 83.1176Z" fill="#98C1D9" stroke="black" stroke-width="0.8" mask="url(#path-7-inside-1_97_427)"/>
</g>
</g>
</g>
<g id="nodejs">
<g id="nodejs_2">
<mask id="path-8-inside-2_97_427" fill="white">
<path d="M258.789 108.466C258.385 108.466 257.982 108.352 257.617 108.162L253.927 105.997C253.369 105.693 253.638 105.579 253.83 105.522C254.561 105.275 254.715 105.218 255.503 104.762C255.579 104.724 255.695 104.743 255.772 104.781L258.616 106.453C258.712 106.51 258.866 106.51 258.962 106.453L270.07 100.108C270.166 100.051 270.243 99.9368 270.243 99.8038V87.1331C270.243 87.0001 270.186 86.8861 270.07 86.8292L258.962 80.5033C258.866 80.4463 258.731 80.4463 258.616 80.5033L247.508 86.8292C247.392 86.8861 247.335 87.0191 247.335 87.1331V99.8038C247.335 99.9178 247.411 100.032 247.508 100.089L250.544 101.817C252.197 102.634 253.215 101.665 253.215 100.716V88.1969C253.215 88.0259 253.35 87.874 253.542 87.874H254.945C255.118 87.874 255.272 88.0069 255.272 88.1969V100.716C255.272 102.9 254.08 104.135 251.985 104.135C251.351 104.135 250.832 104.135 249.429 103.451L246.508 101.798C245.797 101.381 245.336 100.621 245.336 99.8038V87.1331C245.336 86.3162 245.778 85.5374 246.508 85.1385L257.617 78.7936C258.328 78.3947 259.25 78.3947 259.942 78.7936L271.05 85.1385C271.762 85.5564 272.223 86.3162 272.223 87.1331V99.8038C272.223 100.621 271.781 101.4 271.05 101.798L259.942 108.143C259.615 108.352 259.212 108.466 258.789 108.466ZM267.764 95.9665C267.764 93.5919 266.15 92.9651 262.729 92.5091C259.269 92.0532 258.923 91.8253 258.923 91.0274C258.923 90.3625 259.212 89.4887 261.768 89.4887C264.055 89.4887 264.9 89.9826 265.246 91.5023C265.285 91.6543 265.4 91.7493 265.554 91.7493H266.995C267.091 91.7493 267.168 91.7113 267.226 91.6543C267.284 91.5783 267.322 91.5023 267.303 91.4073C267.072 88.7858 265.323 87.57 261.768 87.57C258.597 87.57 256.713 88.8998 256.713 91.1034C256.713 93.516 258.597 94.1618 261.633 94.4658C265.266 94.8267 265.554 95.3396 265.554 96.0425C265.554 97.2773 264.555 97.7902 262.21 97.7902C259.269 97.7902 258.616 97.0683 258.405 95.6246C258.385 95.4726 258.251 95.3586 258.078 95.3586H256.636C256.463 95.3586 256.31 95.4916 256.31 95.6816C256.31 97.5242 257.328 99.7278 262.191 99.7278C265.746 99.7278 267.764 98.3601 267.764 95.9665ZM278.238 86.4492C278.238 87.608 277.277 88.5578 276.105 88.5578C274.933 88.5578 273.972 87.608 273.972 86.4492C273.972 85.2524 274.971 84.3406 276.105 84.3406C277.258 84.3216 278.238 85.2524 278.238 86.4492ZM277.892 86.4492C277.892 85.4614 277.085 84.6825 276.086 84.6825C275.106 84.6825 274.298 85.4614 274.298 86.4492C274.298 87.437 275.106 88.2349 276.086 88.2349C277.085 88.2159 277.892 87.4181 277.892 86.4492ZM277.028 87.627H276.528C276.509 87.513 276.432 86.9051 276.432 86.8861C276.393 86.7532 276.355 86.6772 276.182 86.6772H275.759V87.627H275.298V85.2524H276.124C276.413 85.2524 276.97 85.2524 276.97 85.8793C276.97 86.3162 276.682 86.4112 276.509 86.4682C276.835 86.4872 276.855 86.6962 276.912 87.0001C276.931 87.1901 276.97 87.513 277.028 87.627ZM276.489 85.9553C276.489 85.6324 276.259 85.6324 276.143 85.6324H275.759V86.2972H276.124C276.432 86.2972 276.489 86.0883 276.489 85.9553ZM224.387 58.8852C224.387 58.3723 224.118 57.9163 223.676 57.6694L211.895 50.9636C211.703 50.8496 211.472 50.7926 211.242 50.7736H211.126C210.896 50.7736 210.684 50.8496 210.473 50.9636L198.711 57.6694C198.269 57.9163 198 58.3913 198 58.8852L198.019 76.9319C198.019 77.1789 198.154 77.4068 198.365 77.5398C198.577 77.6728 198.846 77.6728 199.076 77.5398L206.072 73.5695C206.514 73.3036 206.783 72.8477 206.783 72.3537V63.9193C206.783 63.4253 207.052 62.9504 207.494 62.7035L210.473 61.0128C210.704 60.8798 210.934 60.8228 211.184 60.8228C211.434 60.8228 211.684 60.8798 211.895 61.0128L214.874 62.7035C215.316 62.9504 215.585 63.4253 215.585 63.9193V72.3537C215.585 72.8477 215.854 73.3226 216.296 73.5695L223.292 77.5398C223.503 77.6728 223.792 77.6728 224.003 77.5398C224.214 77.4258 224.349 77.1789 224.349 76.9319L224.387 58.8852ZM288.809 39.1857V72.6957C288.809 73.1896 288.54 73.6645 288.097 73.9115L276.316 80.6363C275.874 80.8832 275.336 80.8832 274.894 80.6363L263.113 73.9115C262.671 73.6645 262.402 73.1896 262.402 72.6957V59.2461C262.402 58.7522 262.671 58.2773 263.113 58.0303L274.894 51.3055C275.336 51.0586 275.874 51.0586 276.316 51.3055L279.257 52.9772C279.584 53.1672 280.006 52.9202 280.006 52.5593V34.7025C280.006 34.1706 280.583 33.8287 281.063 34.0946L288.078 37.9699C288.52 38.1979 288.809 38.6728 288.809 39.1857ZM279.968 63.6723C279.968 63.5393 279.891 63.4253 279.795 63.3684L275.759 61.0508C275.644 60.9938 275.509 60.9938 275.394 61.0508L271.358 63.3684C271.243 63.4253 271.185 63.5393 271.185 63.6723V68.2885C271.185 68.4215 271.262 68.5354 271.358 68.5924L275.394 70.891C275.509 70.948 275.644 70.948 275.74 70.891L279.776 68.5924C279.891 68.5354 279.949 68.4215 279.949 68.2885V63.6723H279.968ZM320.289 63.5393C320.731 63.2924 321 62.8175 321 62.3235V59.0751C321 58.5812 320.731 58.1063 320.289 57.8593L308.585 51.1346C308.143 50.8876 307.605 50.8876 307.163 51.1346L295.381 57.8593C294.939 58.1063 294.67 58.5812 294.67 59.0751V72.5247C294.67 73.0376 294.939 73.4935 295.381 73.7405L307.086 80.3323C307.508 80.5793 308.047 80.5793 308.489 80.3323L315.561 76.438C316.042 76.1721 316.042 75.4882 315.561 75.2222L303.703 68.4974C303.473 68.3645 303.338 68.1365 303.338 67.8895V63.6723C303.338 63.4253 303.473 63.1974 303.703 63.0644L307.393 60.9558C307.605 60.8228 307.893 60.8228 308.104 60.9558L311.794 63.0644C312.006 63.1974 312.159 63.4253 312.159 63.6723V66.9777C312.159 67.5096 312.755 67.8516 313.236 67.5856L320.289 63.5393ZM305.433 64.2042C305.356 64.2612 305.298 64.3372 305.298 64.4322V67.0157C305.298 67.1107 305.356 67.2057 305.433 67.2437L307.701 68.5354C307.777 68.5924 307.893 68.5924 307.97 68.5354L310.238 67.2437C310.314 67.1867 310.372 67.1107 310.372 67.0157V64.4322C310.372 64.3372 310.314 64.2422 310.238 64.2042L307.97 62.9124C307.893 62.8555 307.777 62.8555 307.701 62.9124L305.433 64.2042ZM256.579 72.4677V59.0941C256.579 58.6002 256.271 58.1253 255.829 57.8783L244.087 51.1915C243.683 50.9636 243.126 50.9256 242.664 51.1915L230.922 57.8783C230.48 58.1253 230.172 58.5812 230.172 59.0941V72.4677C230.172 72.9996 230.537 73.4556 230.941 73.6835L242.703 80.3703C243.164 80.6363 243.702 80.6173 244.125 80.3703L255.848 73.6835C256.194 73.4935 256.444 73.1706 256.54 72.7907C256.56 72.6957 256.579 72.5817 256.579 72.4677ZM242.299 48.741L242.145 48.836H242.357L242.299 48.741ZM256.944 73.4745L256.867 73.3416V73.5125L256.944 73.4745Z"/>
</mask>
<path d="M258.789 108.466C258.385 108.466 257.982 108.352 257.617 108.162L253.927 105.997C253.369 105.693 253.638 105.579 253.83 105.522C254.561 105.275 254.715 105.218 255.503 104.762C255.579 104.724 255.695 104.743 255.772 104.781L258.616 106.453C258.712 106.51 258.866 106.51 258.962 106.453L270.07 100.108C270.166 100.051 270.243 99.9368 270.243 99.8038V87.1331C270.243 87.0001 270.186 86.8861 270.07 86.8292L258.962 80.5033C258.866 80.4463 258.731 80.4463 258.616 80.5033L247.508 86.8292C247.392 86.8861 247.335 87.0191 247.335 87.1331V99.8038C247.335 99.9178 247.411 100.032 247.508 100.089L250.544 101.817C252.197 102.634 253.215 101.665 253.215 100.716V88.1969C253.215 88.0259 253.35 87.874 253.542 87.874H254.945C255.118 87.874 255.272 88.0069 255.272 88.1969V100.716C255.272 102.9 254.08 104.135 251.985 104.135C251.351 104.135 250.832 104.135 249.429 103.451L246.508 101.798C245.797 101.381 245.336 100.621 245.336 99.8038V87.1331C245.336 86.3162 245.778 85.5374 246.508 85.1385L257.617 78.7936C258.328 78.3947 259.25 78.3947 259.942 78.7936L271.05 85.1385C271.762 85.5564 272.223 86.3162 272.223 87.1331V99.8038C272.223 100.621 271.781 101.4 271.05 101.798L259.942 108.143C259.615 108.352 259.212 108.466 258.789 108.466ZM267.764 95.9665C267.764 93.5919 266.15 92.9651 262.729 92.5091C259.269 92.0532 258.923 91.8253 258.923 91.0274C258.923 90.3625 259.212 89.4887 261.768 89.4887C264.055 89.4887 264.9 89.9826 265.246 91.5023C265.285 91.6543 265.4 91.7493 265.554 91.7493H266.995C267.091 91.7493 267.168 91.7113 267.226 91.6543C267.284 91.5783 267.322 91.5023 267.303 91.4073C267.072 88.7858 265.323 87.57 261.768 87.57C258.597 87.57 256.713 88.8998 256.713 91.1034C256.713 93.516 258.597 94.1618 261.633 94.4658C265.266 94.8267 265.554 95.3396 265.554 96.0425C265.554 97.2773 264.555 97.7902 262.21 97.7902C259.269 97.7902 258.616 97.0683 258.405 95.6246C258.385 95.4726 258.251 95.3586 258.078 95.3586H256.636C256.463 95.3586 256.31 95.4916 256.31 95.6816C256.31 97.5242 257.328 99.7278 262.191 99.7278C265.746 99.7278 267.764 98.3601 267.764 95.9665ZM278.238 86.4492C278.238 87.608 277.277 88.5578 276.105 88.5578C274.933 88.5578 273.972 87.608 273.972 86.4492C273.972 85.2524 274.971 84.3406 276.105 84.3406C277.258 84.3216 278.238 85.2524 278.238 86.4492ZM277.892 86.4492C277.892 85.4614 277.085 84.6825 276.086 84.6825C275.106 84.6825 274.298 85.4614 274.298 86.4492C274.298 87.437 275.106 88.2349 276.086 88.2349C277.085 88.2159 277.892 87.4181 277.892 86.4492ZM277.028 87.627H276.528C276.509 87.513 276.432 86.9051 276.432 86.8861C276.393 86.7532 276.355 86.6772 276.182 86.6772H275.759V87.627H275.298V85.2524H276.124C276.413 85.2524 276.97 85.2524 276.97 85.8793C276.97 86.3162 276.682 86.4112 276.509 86.4682C276.835 86.4872 276.855 86.6962 276.912 87.0001C276.931 87.1901 276.97 87.513 277.028 87.627ZM276.489 85.9553C276.489 85.6324 276.259 85.6324 276.143 85.6324H275.759V86.2972H276.124C276.432 86.2972 276.489 86.0883 276.489 85.9553ZM224.387 58.8852C224.387 58.3723 224.118 57.9163 223.676 57.6694L211.895 50.9636C211.703 50.8496 211.472 50.7926 211.242 50.7736H211.126C210.896 50.7736 210.684 50.8496 210.473 50.9636L198.711 57.6694C198.269 57.9163 198 58.3913 198 58.8852L198.019 76.9319C198.019 77.1789 198.154 77.4068 198.365 77.5398C198.577 77.6728 198.846 77.6728 199.076 77.5398L206.072 73.5695C206.514 73.3036 206.783 72.8477 206.783 72.3537V63.9193C206.783 63.4253 207.052 62.9504 207.494 62.7035L210.473 61.0128C210.704 60.8798 210.934 60.8228 211.184 60.8228C211.434 60.8228 211.684 60.8798 211.895 61.0128L214.874 62.7035C215.316 62.9504 215.585 63.4253 215.585 63.9193V72.3537C215.585 72.8477 215.854 73.3226 216.296 73.5695L223.292 77.5398C223.503 77.6728 223.792 77.6728 224.003 77.5398C224.214 77.4258 224.349 77.1789 224.349 76.9319L224.387 58.8852ZM288.809 39.1857V72.6957C288.809 73.1896 288.54 73.6645 288.097 73.9115L276.316 80.6363C275.874 80.8832 275.336 80.8832 274.894 80.6363L263.113 73.9115C262.671 73.6645 262.402 73.1896 262.402 72.6957V59.2461C262.402 58.7522 262.671 58.2773 263.113 58.0303L274.894 51.3055C275.336 51.0586 275.874 51.0586 276.316 51.3055L279.257 52.9772C279.584 53.1672 280.006 52.9202 280.006 52.5593V34.7025C280.006 34.1706 280.583 33.8287 281.063 34.0946L288.078 37.9699C288.52 38.1979 288.809 38.6728 288.809 39.1857ZM279.968 63.6723C279.968 63.5393 279.891 63.4253 279.795 63.3684L275.759 61.0508C275.644 60.9938 275.509 60.9938 275.394 61.0508L271.358 63.3684C271.243 63.4253 271.185 63.5393 271.185 63.6723V68.2885C271.185 68.4215 271.262 68.5354 271.358 68.5924L275.394 70.891C275.509 70.948 275.644 70.948 275.74 70.891L279.776 68.5924C279.891 68.5354 279.949 68.4215 279.949 68.2885V63.6723H279.968ZM320.289 63.5393C320.731 63.2924 321 62.8175 321 62.3235V59.0751C321 58.5812 320.731 58.1063 320.289 57.8593L308.585 51.1346C308.143 50.8876 307.605 50.8876 307.163 51.1346L295.381 57.8593C294.939 58.1063 294.67 58.5812 294.67 59.0751V72.5247C294.67 73.0376 294.939 73.4935 295.381 73.7405L307.086 80.3323C307.508 80.5793 308.047 80.5793 308.489 80.3323L315.561 76.438C316.042 76.1721 316.042 75.4882 315.561 75.2222L303.703 68.4974C303.473 68.3645 303.338 68.1365 303.338 67.8895V63.6723C303.338 63.4253 303.473 63.1974 303.703 63.0644L307.393 60.9558C307.605 60.8228 307.893 60.8228 308.104 60.9558L311.794 63.0644C312.006 63.1974 312.159 63.4253 312.159 63.6723V66.9777C312.159 67.5096 312.755 67.8516 313.236 67.5856L320.289 63.5393ZM305.433 64.2042C305.356 64.2612 305.298 64.3372 305.298 64.4322V67.0157C305.298 67.1107 305.356 67.2057 305.433 67.2437L307.701 68.5354C307.777 68.5924 307.893 68.5924 307.97 68.5354L310.238 67.2437C310.314 67.1867 310.372 67.1107 310.372 67.0157V64.4322C310.372 64.3372 310.314 64.2422 310.238 64.2042L307.97 62.9124C307.893 62.8555 307.777 62.8555 307.701 62.9124L305.433 64.2042ZM256.579 72.4677V59.0941C256.579 58.6002 256.271 58.1253 255.829 57.8783L244.087 51.1915C243.683 50.9636 243.126 50.9256 242.664 51.1915L230.922 57.8783C230.48 58.1253 230.172 58.5812 230.172 59.0941V72.4677C230.172 72.9996 230.537 73.4556 230.941 73.6835L242.703 80.3703C243.164 80.6363 243.702 80.6173 244.125 80.3703L255.848 73.6835C256.194 73.4935 256.444 73.1706 256.54 72.7907C256.56 72.6957 256.579 72.5817 256.579 72.4677ZM242.299 48.741L242.145 48.836H242.357L242.299 48.741ZM256.944 73.4745L256.867 73.3416V73.5125L256.944 73.4745Z" fill="#6CC24A" stroke="black" stroke-width="2" mask="url(#path-8-inside-2_97_427)"/>
</g>
</g>
<g id="machine-learning">
<g id="robot">
<path id="robot_2" d="M84.382 112.056H86.2641H84.382ZM84.382 112.056C84.0691 112.056 83.7592 111.996 83.47 111.877C83.1809 111.759 82.9181 111.586 82.6968 111.367C82.4756 111.148 82.3001 110.889 82.1806 110.603C82.061 110.317 81.9996 110.011 82 109.701L84.382 112.056ZM127.259 97.9289H125.376H127.259ZM127.259 97.9289C127.571 97.9285 127.881 97.9892 128.171 98.1074C128.46 98.2256 128.722 98.399 128.944 98.6177C129.165 98.8364 129.34 99.0961 129.46 99.3819C129.58 99.6677 129.641 99.9741 129.641 100.283L127.259 97.9289ZM101.564 98.3683C101.947 98.9346 102.152 99.6011 102.152 100.283L101.564 98.3683ZM101.564 98.3683C101.181 97.802 100.638 97.3615 100.003 97.1016M101.564 98.3683L100.003 97.1016M100.003 97.1016C99.3684 96.8417 98.6703 96.7738 97.9968 96.9062M100.003 97.1016L97.9968 96.9062M97.9968 96.9062C97.3234 97.0386 96.704 97.3656 96.2173 97.8467M97.9968 96.9062L96.2173 97.8467M96.2173 97.8467C95.7305 98.3278 95.3983 98.9416 95.2637 99.6106M96.2173 97.8467L95.2637 99.6106M95.2637 99.6106C95.1291 100.28 95.1982 100.973 95.4622 101.603M95.2637 99.6106L95.4622 101.603M95.4622 101.603C95.7261 102.233 96.1726 102.77 96.7444 103.148M95.4622 101.603L96.7444 103.148M96.7444 103.148C97.3161 103.525 97.9877 103.726 98.6742 103.727L96.7444 103.148ZM115.856 98.3683C116.239 98.9346 116.444 99.6011 116.444 100.283C116.444 100.736 116.354 101.185 116.178 101.603C116.003 102.021 115.747 102.401 115.423 102.72C115.1 103.04 114.717 103.293 114.295 103.465C113.874 103.638 113.422 103.727 112.966 103.727L115.856 98.3683ZM115.856 98.3683C115.474 97.802 114.93 97.3615 114.295 97.1016M115.856 98.3683L114.295 97.1016M114.295 97.1016C113.661 96.8417 112.962 96.7738 112.289 96.9062M114.295 97.1016L112.289 96.9062M112.289 96.9062C111.616 97.0386 110.996 97.3656 110.509 97.8467M112.289 96.9062L110.509 97.8467M110.509 97.8467C110.023 98.3278 109.69 98.9416 109.556 99.6106M110.509 97.8467L109.556 99.6106M109.556 99.6106C109.421 100.28 109.49 100.973 109.754 101.603M109.556 99.6106L109.754 101.603M109.754 101.603C110.018 102.233 110.465 102.77 111.037 103.148M109.754 101.603L111.037 103.148M111.037 103.148C111.608 103.525 112.28 103.726 112.966 103.727L111.037 103.148ZM84.3814 98.4289H84.382H86.2641V111.556H84.382H84.3814C84.1335 111.556 83.888 111.508 83.6592 111.415C83.4304 111.321 83.2228 111.184 83.0483 111.011C82.8738 110.839 82.7358 110.634 82.6418 110.41C82.5478 110.185 82.4997 109.945 82.5 109.702V109.701L82.5 100.283L82.5 100.283C82.4997 100.04 82.5478 99.7995 82.6418 99.5749C82.7358 99.3503 82.8738 99.1458 83.0483 98.9733C83.2228 98.8008 83.4304 98.6637 83.6592 98.5702C83.888 98.4767 84.1335 98.4286 84.3814 98.4289ZM86.7641 98.4289V111.556V98.4289ZM84.382 97.9289H86.2641L82 100.283C81.9996 99.9741 82.061 99.6677 82.1806 99.3819C82.3001 99.0961 82.4756 98.8364 82.6968 98.6177C82.9181 98.399 83.1809 98.2256 83.47 98.1074C83.7592 97.9892 84.0691 97.9285 84.382 97.9289ZM121.994 94.397V94.3972V114.41C121.993 115.524 121.545 116.593 120.746 117.383C119.947 118.173 118.862 118.618 117.73 118.619H93.9106C92.7781 118.618 91.6934 118.173 90.8943 117.383C90.0955 116.594 89.6473 115.524 89.6461 114.41C89.6461 114.41 89.6461 114.41 89.6461 114.41L89.6461 94.3972V94.397C89.6458 93.6904 89.7865 92.9906 90.06 92.3375C90.3336 91.6843 90.7349 91.0905 91.2412 90.59C91.7475 90.0895 92.349 89.6923 93.0113 89.4212C93.6737 89.1502 94.3838 89.0107 95.101 89.0109H95.1011H103.438H103.938V88.5109V83.8019C103.938 83.312 104.135 82.8409 104.487 82.4927C104.84 82.1442 105.319 81.9474 105.82 81.9474C106.321 81.9474 106.801 82.1442 107.153 82.4927C107.505 82.8409 107.702 83.312 107.702 83.8019V88.5109V89.0109H108.202H116.539H116.54C117.257 89.0107 117.967 89.1502 118.629 89.4212C119.292 89.6923 119.893 90.0895 120.399 90.59C120.906 91.0905 121.307 91.6843 121.58 92.3375C121.854 92.9906 121.995 93.6904 121.994 94.397ZM101.556 109.701V109.201H101.056H96.2922H95.7922V109.701V112.056V112.556H96.2922H101.056H101.556V112.056V109.701ZM108.702 109.701V109.201H108.202H103.438H102.938V109.701V112.056V112.556H103.438H108.202H108.702V112.056V109.701ZM115.848 109.701V109.201H115.348H110.584H110.084V109.701V112.056V112.556H110.584H115.348H115.848V112.056V109.701ZM129.141 100.283V100.283V109.701V109.702C129.141 109.945 129.093 110.185 128.999 110.41C128.905 110.634 128.767 110.839 128.592 111.011C128.418 111.184 128.21 111.321 127.981 111.415C127.753 111.508 127.507 111.556 127.259 111.556H127.259H125.376V98.4289H127.259H127.259C127.507 98.4286 127.753 98.4767 127.981 98.5702C128.21 98.6637 128.418 98.8008 128.592 98.9733C128.767 99.1458 128.905 99.3502 128.999 99.5749C129.093 99.7995 129.141 100.04 129.141 100.283ZM98.6742 103.727C99.1301 103.727 99.5816 103.638 100.003 103.465C100.425 103.293 100.808 103.04 101.131 102.72C101.454 102.401 101.711 102.021 101.886 101.603C102.062 101.185 102.152 100.736 102.152 100.283L98.6742 103.727Z" fill="#EBECF4" stroke="black"/>
</g>
<g id="cap">
<path id="cap_2" d="M125.119 79.1433L125.119 79.1433C125.88 79.3748 126.296 80.0126 126.296 80.6709C126.296 81.3293 125.88 81.9671 125.119 82.1986L125.119 82.1986L112.132 86.1423L112.132 86.1423C111.057 86.4685 110.141 86.2872 109.663 86.1423L109.663 86.1423L100.804 83.4519C100.531 83.6931 100.346 84.0069 100.273 84.3572C100.684 84.7056 100.969 85.2179 100.969 85.8249C100.969 86.3793 100.729 86.851 100.379 87.193L101.5 92.1821L101.106 92.2708L101.5 92.1821C101.675 92.9616 101.075 93.6878 100.285 93.6878H97.673C96.8835 93.6878 96.2832 92.9613 96.4584 92.1821L96.8537 92.271L96.4584 92.1821L97.5801 87.193C97.2296 86.851 96.9896 86.3793 96.9896 85.8249C96.9896 85.1779 97.3118 84.6343 97.7722 84.285C97.8312 83.7096 98.012 83.1709 98.288 82.6874L96.6767 82.1981C95.9149 81.9669 95.5 81.3289 95.5 80.6707C95.5 80.0125 95.9149 79.3746 96.6767 79.1433L125.119 79.1433ZM125.119 79.1433L112.132 75.1996C111.33 74.9559 110.465 74.9559 109.663 75.1996C109.663 75.1996 109.663 75.1996 109.663 75.1996L96.6767 79.1433L125.119 79.1433ZM109.516 86.5932L109.516 86.5931L102.764 84.543L102.197 84.3709L102.123 84.9587L101.463 90.1799L101.459 90.2112V90.2426C101.459 90.8707 101.845 91.3873 102.354 91.7835C102.869 92.1847 103.583 92.5242 104.421 92.8001C106.101 93.3538 108.391 93.6878 110.898 93.6878C113.404 93.6878 115.694 93.3538 117.375 92.8001C118.212 92.5242 118.926 92.1847 119.441 91.7835C119.95 91.3873 120.336 90.8707 120.336 90.2426V90.2112L120.332 90.1799L119.672 84.9583L119.598 84.3704L119.031 84.5426L112.279 86.5931C111.078 86.9577 110.053 86.7564 109.516 86.5932Z" fill="#EBECF4" stroke="black"/>
</g>
</g>
<g id="mobile-android">
<g id="android">
<path id="android_2" d="M69.6819 107.839C69.5501 107.839 69.4212 107.795 69.3116 107.713C69.2019 107.63 69.1165 107.513 69.066 107.375C69.0156 107.238 69.0024 107.087 69.0281 106.941C69.0538 106.795 69.1173 106.661 69.2105 106.556C69.3038 106.451 69.4226 106.379 69.5519 106.35C69.6812 106.321 69.8152 106.336 69.9371 106.393C70.0589 106.45 70.163 106.546 70.2363 106.67C70.3095 106.794 70.3486 106.939 70.3486 107.088C70.3486 107.287 70.2784 107.478 70.1533 107.619C70.0283 107.76 69.8588 107.839 69.6819 107.839ZM62.3181 107.839C62.1862 107.839 62.0573 107.795 61.9477 107.713C61.838 107.63 61.7526 107.513 61.7021 107.375C61.6517 107.238 61.6385 107.087 61.6642 106.941C61.6899 106.795 61.7534 106.661 61.8467 106.556C61.9399 106.451 62.0587 106.379 62.188 106.35C62.3173 106.321 62.4514 106.336 62.5732 106.393C62.695 106.45 62.7991 106.546 62.8724 106.67C62.9456 106.794 62.9847 106.939 62.9847 107.088C62.9847 107.287 62.9145 107.478 62.7895 107.619C62.6644 107.76 62.4949 107.839 62.3181 107.839ZM69.9208 103.315L71.2525 100.716C71.2737 100.68 71.2882 100.64 71.295 100.598C71.3019 100.556 71.301 100.512 71.2925 100.47C71.2839 100.429 71.2678 100.389 71.2452 100.355C71.2226 100.32 71.1939 100.292 71.161 100.27C71.1281 100.249 71.0917 100.235 71.0539 100.23C71.0161 100.225 70.9778 100.229 70.9414 100.241C70.9051 100.254 70.8713 100.274 70.8423 100.302C70.8133 100.33 70.7896 100.364 70.7728 100.402L69.4244 103.035C68.3474 102.491 67.1804 102.209 66 102.209C64.8196 102.209 63.6526 102.491 62.5756 103.035L61.2272 100.402C61.2104 100.364 61.1867 100.33 61.1577 100.302C61.1287 100.274 61.0949 100.254 61.0586 100.241C61.0222 100.229 60.9839 100.225 60.9461 100.23C60.9083 100.235 60.8719 100.249 60.839 100.27C60.8061 100.292 60.7774 100.32 60.7548 100.355C60.7322 100.389 60.7161 100.429 60.7075 100.47C60.699 100.512 60.6981 100.556 60.705 100.598C60.7118 100.64 60.7263 100.68 60.7475 100.716L62.0792 103.315C59.7925 104.717 58.2289 107.326 58 110.409H74C73.7711 107.326 72.2072 104.717 69.9208 103.315Z" fill="#A4C639"/>
</g>
<g id="mobile">
<path id="mobile_2" d="M57.5345 82.936H74.029C75.7097 82.936 77.0636 84.2825 77.0636 85.9297V116.208C77.0636 117.855 75.7097 119.202 74.029 119.202H57.5345C55.8538 119.202 54.5 117.855 54.5 116.208V85.9297C54.5 84.2825 55.8538 82.936 57.5345 82.936ZM62.9254 115.044C62.9254 116.614 64.2078 117.873 65.7818 117.873C67.3558 117.873 68.6381 116.614 68.6381 115.044C68.6381 113.474 67.3558 112.215 65.7818 112.215C64.2078 112.215 62.9254 113.474 62.9254 115.044ZM73.1454 110.885C73.902 110.885 74.529 110.274 74.529 109.512V86.8031C74.529 86.0411 73.902 85.4297 73.1454 85.4297H58.4182C57.6615 85.4297 57.0345 86.0411 57.0345 86.8031V109.512C57.0345 110.274 57.6615 110.885 58.4182 110.885H73.1454Z" fill="#EBECF4" stroke="black"/>
</g>
</g>
<g id="anim-fundamental-stack">
<g id="js">
<path id="js_2" d="M43.7143 79.4706H12.2857C9.91964 79.4706 8 81.3681 8 83.7068V114.772C8 117.111 9.91964 119.008 12.2857 119.008H43.7143C46.0804 119.008 48 117.111 48 114.772V83.7068C48 81.3681 46.0804 79.4706 43.7143 79.4706ZM29.7679 110.306C29.7679 114.154 27.4821 115.911 24.1518 115.911C21.1429 115.911 19.4018 114.375 18.5089 112.513L21.5714 110.686C22.1607 111.719 22.6964 112.592 23.9911 112.592C25.2232 112.592 26.0089 112.116 26.0089 110.254V97.6244H29.7679V110.306ZM38.6607 115.911C35.1696 115.911 32.9107 114.269 31.8125 112.116L34.875 110.368C35.6786 111.666 36.7321 112.628 38.5804 112.628C40.1339 112.628 41.1339 111.86 41.1339 110.792C41.1339 109.521 40.1161 109.071 38.3929 108.321L37.4554 107.924C34.7411 106.785 32.9464 105.347 32.9464 102.32C32.9464 99.5307 35.0982 97.4126 38.4464 97.4126C40.8393 97.4126 42.5536 98.2334 43.7857 100.387L40.8571 102.24C40.2143 101.102 39.5179 100.652 38.4375 100.652C37.3393 100.652 36.6429 101.34 36.6429 102.24C36.6429 103.352 37.3393 103.802 38.9554 104.499L39.8929 104.897C43.0893 106.247 44.8839 107.632 44.8839 110.739C44.8839 114.075 42.2232 115.911 38.6607 115.911Z" fill="#F0DB4F"/>
</g>
<g id="html5">
<path id="html5_2" d="M11 39.933L14.1161 74.8638L28.0982 79.4707L42.1696 74.8638L45.2857 39.933H11ZM38.5179 51.2207H22.1071L22.4732 55.5804H38.1518L36.9375 68.6773L28.1964 71.0601V71.0866H28.0982L19.2857 68.6773L18.75 61.9876H23.0089L23.3214 65.3501L28.0982 66.6298L32.8929 65.3501L33.4286 59.8607H18.5268L17.3839 47.011H38.9107L38.5179 51.2207Z" fill="#E34C26"/>
</g>
<g id="css3">
<path id="css3_2" d="M53.8571 0.395386L48.1429 32.8727L28.2054 39.933L11 32.8727L12.75 24.5063H20.0714L19.3571 28.0894L29.75 32.0078L41.7232 28.0894L43.4018 19.5199H13.6339L15.0625 12.2832H44.8571L45.7946 7.63218H16.0268L17.4821 0.395386H53.8571Z" fill="#264DE4"/>
</g>
</g>
</g>
</svg>
