<svg width="360" height="301" viewBox="0 0 360 301" fill="none" xmlns="http://www.w3.org/2000/svg">
<path d="M163.042 221.769L163.104 221.785H163.169H167.976L167.977 223.134L165.936 223.289L165.009 223.36L165.579 224.094C166.03 224.675 166.478 225.439 166.478 226.536C166.478 227.734 166.129 228.583 165.612 229.193C165.088 229.811 164.359 230.221 163.542 230.476C161.889 230.991 160.003 230.83 159.168 230.598L158.808 230.498L158.61 230.815L157.711 232.258L157.267 232.97L158.105 233.021C158.644 233.054 159.158 233.084 159.648 233.112C160.785 233.177 161.792 233.235 162.685 233.311C163.964 233.419 164.965 233.561 165.734 233.799C166.496 234.035 166.985 234.351 167.294 234.778C167.605 235.207 167.783 235.817 167.783 236.738C167.783 238.131 167.184 239.199 166.045 239.942C164.879 240.702 163.118 241.136 160.802 241.136C158.364 241.136 156.764 240.823 155.79 240.301C155.312 240.044 154.997 239.744 154.798 239.415C154.6 239.086 154.5 238.697 154.5 238.235C154.5 237.707 154.615 237.327 154.821 236.981C155.037 236.618 155.366 236.272 155.842 235.825L156.401 235.299L155.694 235C155.329 234.846 155.117 234.647 154.991 234.439C154.863 234.226 154.802 233.968 154.802 233.667C154.802 233.307 154.932 232.977 155.298 232.527C155.678 232.06 156.264 231.522 157.116 230.742L157.657 230.246L156.998 229.924C155.839 229.358 154.936 228.123 154.936 226.291C154.936 225.006 155.286 224.071 155.818 223.386C156.355 222.697 157.106 222.226 157.964 221.925C159.696 221.317 161.775 221.437 163.042 221.769ZM157.952 235.697L157.693 235.679L157.53 235.881L157.525 235.887C157.191 236.3 156.711 236.891 156.711 237.637C156.711 238.477 157.447 238.964 158.133 239.22C158.867 239.493 159.81 239.616 160.727 239.605C161.644 239.594 162.589 239.45 163.324 239.147C164.027 238.857 164.731 238.333 164.731 237.475C164.731 237.108 164.626 236.747 164.279 236.483C163.986 236.259 163.573 236.152 163.101 236.079C162.442 235.977 161.465 235.917 160.079 235.832C159.456 235.794 158.749 235.751 157.952 235.697ZM182.976 217.09C182.975 217.839 182.971 218.438 182.968 218.916C182.964 219.617 182.961 220.057 182.97 220.327C182.974 220.453 182.982 220.564 182.996 220.658C183.009 220.735 183.037 220.883 183.14 221.012C183.28 221.187 183.465 221.224 183.574 221.229C183.614 221.231 183.652 221.229 183.666 221.228L183.669 221.228C183.688 221.227 183.692 221.227 183.695 221.227H187.029V222.947H183.476H182.976V223.447V229.949C182.976 229.961 182.976 229.981 182.975 230.008C182.971 230.136 182.962 230.418 182.997 230.715C183.04 231.079 183.154 231.546 183.465 231.945C183.79 232.361 184.291 232.654 185.001 232.721C185.586 232.776 186.309 232.678 187.205 232.389L187.659 233.868C186.568 234.339 185.127 234.728 183.83 234.728C182.261 234.728 181.31 234.409 180.738 233.837C180.167 233.266 179.868 232.336 179.868 230.847V223.719C179.868 223.715 179.868 223.71 179.868 223.704C179.868 223.672 179.869 223.614 179.865 223.566C179.861 223.503 179.846 223.377 179.764 223.25C179.674 223.113 179.548 223.041 179.444 223.003C179.349 222.969 179.252 222.956 179.173 222.949C179.015 222.935 178.79 222.936 178.497 222.939C178.439 222.939 178.376 222.94 178.31 222.941C178.147 222.942 177.961 222.944 177.746 222.946V221.459C178.804 221.275 179.637 220.873 180.242 220.133C180.843 219.396 181.166 218.384 181.337 217.09H182.976ZM160.911 223.205C158.898 223.205 157.785 224.625 157.749 226.074C157.731 226.79 157.976 227.518 158.505 228.07C159.039 228.627 159.829 228.968 160.83 228.968C161.821 228.968 162.604 228.625 163.138 228.07C163.666 227.522 163.92 226.798 163.919 226.086C163.919 225.375 163.665 224.654 163.151 224.107C162.63 223.553 161.867 223.205 160.911 223.205ZM170.251 234.694V233.485C170.355 233.471 170.45 233.459 170.54 233.448C170.655 233.434 170.759 233.421 170.857 233.408C171.102 233.376 171.324 233.343 171.494 233.286C171.693 233.219 171.902 233.091 172.006 232.829C172.075 232.655 172.075 232.455 172.075 232.333C172.074 232.325 172.074 232.317 172.074 232.31V224.312C172.074 224.17 172.071 223.965 171.978 223.77C171.873 223.55 171.696 223.422 171.525 223.333C171.364 223.25 171.153 223.175 170.909 223.091C170.832 223.065 170.749 223.037 170.66 223.007C170.551 222.97 170.433 222.93 170.302 222.885L170.487 221.52H175.184V232.311C175.184 232.417 175.185 232.534 175.199 232.638C175.213 232.745 175.246 232.895 175.352 233.032C175.464 233.176 175.607 233.246 175.723 233.284C175.831 233.319 175.949 233.338 176.052 233.352C176.053 233.352 176.053 233.352 176.053 233.352L177.007 233.482V234.694H170.251ZM173.262 218.344C172.582 218.344 172.111 218.149 171.809 217.847C171.508 217.546 171.313 217.074 171.313 216.394C171.313 215.714 171.507 215.261 171.803 214.975C172.102 214.686 172.574 214.5 173.262 214.5C173.965 214.5 174.444 214.687 174.745 214.977C175.043 215.263 175.238 215.716 175.238 216.394C175.238 217.073 175.043 217.544 174.739 217.845C174.435 218.147 173.957 218.344 173.262 218.344Z" fill="#EBECF4" stroke="black"/>
<path d="M159 218.208C159 214.87 156.296 212.167 152.958 212.167C149.62 212.167 146.917 214.87 146.917 218.208C146.917 220.957 148.752 223.276 151.259 224.008C151.214 225.224 150.942 226.161 150.428 226.795C149.265 228.245 146.705 228.487 143.994 228.736C141.864 228.932 139.659 229.144 137.854 230.012V219.137C140.309 218.367 142.083 216.079 142.083 213.375C142.083 210.037 139.38 207.333 136.042 207.333C132.704 207.333 130 210.037 130 213.375C130 216.079 131.775 218.367 134.229 219.137V234.189C131.775 234.966 130 237.255 130 239.958C130 243.296 132.704 246 136.042 246C139.38 246 142.083 243.296 142.083 239.958C142.083 237.391 140.482 235.193 138.217 234.324C138.451 233.932 138.806 233.584 139.342 233.312C140.565 232.693 142.393 232.527 144.334 232.346C147.521 232.051 151.131 231.711 153.26 229.068C154.318 227.754 154.854 226.062 154.892 223.94C157.278 223.125 159 220.867 159 218.208ZM136.042 212.167C136.706 212.167 137.25 212.71 137.25 213.375C137.25 214.04 136.706 214.583 136.042 214.583C135.377 214.583 134.833 214.04 134.833 213.375C134.833 212.71 135.377 212.167 136.042 212.167ZM136.042 241.167C135.377 241.167 134.833 240.623 134.833 239.958C134.833 239.294 135.377 238.75 136.042 238.75C136.706 238.75 137.25 239.294 137.25 239.958C137.25 240.623 136.706 241.167 136.042 241.167ZM152.958 217C153.623 217 154.167 217.544 154.167 218.208C154.167 218.873 153.623 219.417 152.958 219.417C152.294 219.417 151.75 218.873 151.75 218.208C151.75 217.544 152.294 217 152.958 217Z" fill="#F1502F"/>
<path d="M209.6 276.875H210.1V276.375V244.875V244.375H209.6H142.4H141.9V244.875V276.375V276.875H142.4H209.6ZM122.8 288.688H164.206C164.377 289.633 165.063 290.543 165.993 291.229C167.108 292.053 168.657 292.625 170.4 292.625H181.04C182.691 292.625 184.194 292.233 185.316 291.487C186.318 290.82 187.017 289.867 187.217 288.688H229.2C229.879 288.688 230.476 288.884 230.89 289.175C231.306 289.468 231.5 289.823 231.5 290.156V292.125C231.5 294.082 230.361 295.914 228.422 297.278C226.486 298.64 223.789 299.5 220.8 299.5H131.2C128.211 299.5 125.514 298.64 123.578 297.278C121.639 295.914 120.5 294.082 120.5 292.125V290.156C120.5 289.823 120.694 289.468 121.11 289.175C121.524 288.884 122.121 288.688 122.8 288.688ZM212.4 237.5C214.619 237.5 216.616 238.139 218.045 239.144C219.476 240.15 220.3 241.49 220.3 242.906V283.75H131.7V242.906C131.7 241.49 132.524 240.15 133.955 239.144C135.384 238.139 137.381 237.5 139.6 237.5H212.4Z" fill="#EBECF4" stroke="black"/>
<mask id="path-4-inside-1_80_467" fill="white">
<path d="M189.421 255.52C189.067 255.402 188.713 255.29 188.359 255.185C188.418 254.943 188.47 254.7 188.523 254.458C189.329 250.55 188.798 247.409 187.008 246.373C185.283 245.383 182.471 246.412 179.625 248.891C179.343 249.133 179.068 249.389 178.805 249.645C178.628 249.474 178.445 249.304 178.261 249.14C175.278 246.491 172.288 245.376 170.498 246.419C168.78 247.415 168.268 250.373 168.99 254.071C169.062 254.438 169.14 254.799 169.232 255.166C168.813 255.284 168.4 255.415 168.013 255.553C164.511 256.766 162 258.68 162 260.66C162 262.706 164.675 264.758 168.314 266.004C168.609 266.103 168.904 266.201 169.206 266.286C169.108 266.68 169.022 267.066 168.944 267.466C168.255 271.105 168.793 273.99 170.511 274.981C172.281 276.003 175.258 274.954 178.156 272.417C178.386 272.214 178.615 272.004 178.845 271.781C179.133 272.063 179.435 272.332 179.736 272.594C182.543 275.007 185.316 275.984 187.028 274.994C188.798 273.971 189.375 270.869 188.627 267.093C188.568 266.804 188.503 266.509 188.431 266.207C188.641 266.148 188.844 266.083 189.047 266.017C192.83 264.765 195.571 262.739 195.571 260.66C195.571 258.674 192.988 256.746 189.421 255.52ZM180.549 249.953C182.989 247.829 185.264 246.996 186.3 247.592C187.408 248.229 187.834 250.799 187.139 254.176C187.093 254.399 187.047 254.615 186.988 254.831C185.533 254.503 184.057 254.267 182.575 254.136C181.723 252.917 180.792 251.75 179.782 250.655C180.038 250.412 180.287 250.182 180.549 249.953ZM172.963 264.063C173.297 264.634 173.638 265.204 173.999 265.762C172.976 265.65 171.96 265.486 170.957 265.27C171.245 264.326 171.606 263.349 172.025 262.352C172.327 262.929 172.635 263.499 172.963 264.063ZM170.976 256.175C171.921 255.966 172.924 255.795 173.966 255.664C173.619 256.208 173.278 256.766 172.957 257.329C172.635 257.887 172.321 258.457 172.025 259.034C171.612 258.057 171.265 257.1 170.976 256.175ZM172.773 260.693C173.206 259.788 173.678 258.903 174.176 258.031C174.674 257.159 175.212 256.313 175.776 255.48C176.76 255.408 177.763 255.369 178.786 255.369C179.808 255.369 180.818 255.408 181.795 255.48C182.353 256.307 182.884 257.152 183.389 258.018C183.893 258.883 184.365 259.769 184.811 260.667C184.372 261.572 183.9 262.463 183.395 263.342C182.897 264.214 182.366 265.06 181.808 265.899C180.831 265.971 179.815 266.004 178.786 266.004C177.756 266.004 176.76 265.971 175.796 265.912C175.225 265.08 174.688 264.227 174.183 263.355C173.678 262.483 173.212 261.598 172.773 260.693ZM184.615 264.05C184.949 263.473 185.264 262.89 185.572 262.3C185.992 263.25 186.359 264.214 186.68 265.204C185.664 265.434 184.634 265.611 183.598 265.729C183.952 265.178 184.287 264.614 184.615 264.05ZM185.559 259.034C185.251 258.457 184.936 257.88 184.608 257.316C184.287 256.759 183.952 256.208 183.605 255.664C184.661 255.795 185.67 255.972 186.614 256.189C186.313 257.159 185.959 258.103 185.559 259.034ZM178.799 251.658C179.487 252.405 180.136 253.192 180.74 254.005C179.441 253.946 178.136 253.946 176.838 254.005C177.481 253.159 178.143 252.372 178.799 251.658ZM171.193 247.638C172.294 246.996 174.74 247.914 177.317 250.196C177.481 250.34 177.645 250.497 177.815 250.655C176.799 251.75 175.861 252.917 175.002 254.136C173.52 254.267 172.052 254.497 170.596 254.818C170.511 254.484 170.439 254.143 170.367 253.802C169.75 250.628 170.157 248.235 171.193 247.638ZM169.586 264.922C169.311 264.844 169.042 264.758 168.773 264.667C167.377 264.227 165.79 263.532 164.642 262.621C163.98 262.162 163.534 261.454 163.41 260.66C163.41 259.46 165.482 257.926 168.472 256.884C168.845 256.752 169.226 256.634 169.606 256.523C170.052 257.946 170.59 259.342 171.212 260.693C170.583 262.064 170.039 263.48 169.586 264.922ZM177.232 271.348C176.15 272.338 174.897 273.125 173.534 273.663C172.806 274.01 171.966 274.043 171.219 273.748C170.176 273.145 169.744 270.83 170.334 267.716C170.406 267.348 170.485 266.981 170.576 266.621C172.045 266.935 173.527 267.152 175.029 267.263C175.894 268.489 176.845 269.663 177.861 270.764C177.651 270.968 177.441 271.164 177.232 271.348ZM178.838 269.755C178.169 269.033 177.5 268.234 176.851 267.375C177.481 267.401 178.13 267.414 178.786 267.414C179.461 267.414 180.123 267.401 180.779 267.368C180.176 268.201 179.527 268.994 178.838 269.755ZM187.408 271.722C187.349 272.522 186.955 273.269 186.326 273.774C185.283 274.377 183.061 273.59 180.661 271.532C180.385 271.296 180.11 271.04 179.828 270.778C180.831 269.669 181.756 268.496 182.595 267.263C184.097 267.139 185.592 266.909 187.067 266.575C187.132 266.843 187.192 267.112 187.244 267.375C187.565 268.791 187.618 270.266 187.408 271.722ZM188.601 264.673C188.418 264.732 188.234 264.791 188.044 264.844C187.585 263.414 187.021 262.018 186.372 260.66C187.001 259.323 187.532 257.946 187.978 256.536C188.319 256.634 188.647 256.739 188.962 256.844C192.017 257.893 194.161 259.454 194.161 260.647C194.161 261.932 191.873 263.591 188.601 264.673ZM178.786 263.69C180.444 263.69 181.789 262.345 181.789 260.687C181.789 259.028 180.444 257.684 178.786 257.684C177.127 257.684 175.783 259.028 175.783 260.687C175.783 262.345 177.127 263.69 178.786 263.69Z"/>
</mask>
<path d="M189.421 255.52C189.067 255.402 188.713 255.29 188.359 255.185C188.418 254.943 188.47 254.7 188.523 254.458C189.329 250.55 188.798 247.409 187.008 246.373C185.283 245.383 182.471 246.412 179.625 248.891C179.343 249.133 179.068 249.389 178.805 249.645C178.628 249.474 178.445 249.304 178.261 249.14C175.278 246.491 172.288 245.376 170.498 246.419C168.78 247.415 168.268 250.373 168.99 254.071C169.062 254.438 169.14 254.799 169.232 255.166C168.813 255.284 168.4 255.415 168.013 255.553C164.511 256.766 162 258.68 162 260.66C162 262.706 164.675 264.758 168.314 266.004C168.609 266.103 168.904 266.201 169.206 266.286C169.108 266.68 169.022 267.066 168.944 267.466C168.255 271.105 168.793 273.99 170.511 274.981C172.281 276.003 175.258 274.954 178.156 272.417C178.386 272.214 178.615 272.004 178.845 271.781C179.133 272.063 179.435 272.332 179.736 272.594C182.543 275.007 185.316 275.984 187.028 274.994C188.798 273.971 189.375 270.869 188.627 267.093C188.568 266.804 188.503 266.509 188.431 266.207C188.641 266.148 188.844 266.083 189.047 266.017C192.83 264.765 195.571 262.739 195.571 260.66C195.571 258.674 192.988 256.746 189.421 255.52ZM180.549 249.953C182.989 247.829 185.264 246.996 186.3 247.592C187.408 248.229 187.834 250.799 187.139 254.176C187.093 254.399 187.047 254.615 186.988 254.831C185.533 254.503 184.057 254.267 182.575 254.136C181.723 252.917 180.792 251.75 179.782 250.655C180.038 250.412 180.287 250.182 180.549 249.953ZM172.963 264.063C173.297 264.634 173.638 265.204 173.999 265.762C172.976 265.65 171.96 265.486 170.957 265.27C171.245 264.326 171.606 263.349 172.025 262.352C172.327 262.929 172.635 263.499 172.963 264.063ZM170.976 256.175C171.921 255.966 172.924 255.795 173.966 255.664C173.619 256.208 173.278 256.766 172.957 257.329C172.635 257.887 172.321 258.457 172.025 259.034C171.612 258.057 171.265 257.1 170.976 256.175ZM172.773 260.693C173.206 259.788 173.678 258.903 174.176 258.031C174.674 257.159 175.212 256.313 175.776 255.48C176.76 255.408 177.763 255.369 178.786 255.369C179.808 255.369 180.818 255.408 181.795 255.48C182.353 256.307 182.884 257.152 183.389 258.018C183.893 258.883 184.365 259.769 184.811 260.667C184.372 261.572 183.9 262.463 183.395 263.342C182.897 264.214 182.366 265.06 181.808 265.899C180.831 265.971 179.815 266.004 178.786 266.004C177.756 266.004 176.76 265.971 175.796 265.912C175.225 265.08 174.688 264.227 174.183 263.355C173.678 262.483 173.212 261.598 172.773 260.693ZM184.615 264.05C184.949 263.473 185.264 262.89 185.572 262.3C185.992 263.25 186.359 264.214 186.68 265.204C185.664 265.434 184.634 265.611 183.598 265.729C183.952 265.178 184.287 264.614 184.615 264.05ZM185.559 259.034C185.251 258.457 184.936 257.88 184.608 257.316C184.287 256.759 183.952 256.208 183.605 255.664C184.661 255.795 185.67 255.972 186.614 256.189C186.313 257.159 185.959 258.103 185.559 259.034ZM178.799 251.658C179.487 252.405 180.136 253.192 180.74 254.005C179.441 253.946 178.136 253.946 176.838 254.005C177.481 253.159 178.143 252.372 178.799 251.658ZM171.193 247.638C172.294 246.996 174.74 247.914 177.317 250.196C177.481 250.34 177.645 250.497 177.815 250.655C176.799 251.75 175.861 252.917 175.002 254.136C173.52 254.267 172.052 254.497 170.596 254.818C170.511 254.484 170.439 254.143 170.367 253.802C169.75 250.628 170.157 248.235 171.193 247.638ZM169.586 264.922C169.311 264.844 169.042 264.758 168.773 264.667C167.377 264.227 165.79 263.532 164.642 262.621C163.98 262.162 163.534 261.454 163.41 260.66C163.41 259.46 165.482 257.926 168.472 256.884C168.845 256.752 169.226 256.634 169.606 256.523C170.052 257.946 170.59 259.342 171.212 260.693C170.583 262.064 170.039 263.48 169.586 264.922ZM177.232 271.348C176.15 272.338 174.897 273.125 173.534 273.663C172.806 274.01 171.966 274.043 171.219 273.748C170.176 273.145 169.744 270.83 170.334 267.716C170.406 267.348 170.485 266.981 170.576 266.621C172.045 266.935 173.527 267.152 175.029 267.263C175.894 268.489 176.845 269.663 177.861 270.764C177.651 270.968 177.441 271.164 177.232 271.348ZM178.838 269.755C178.169 269.033 177.5 268.234 176.851 267.375C177.481 267.401 178.13 267.414 178.786 267.414C179.461 267.414 180.123 267.401 180.779 267.368C180.176 268.201 179.527 268.994 178.838 269.755ZM187.408 271.722C187.349 272.522 186.955 273.269 186.326 273.774C185.283 274.377 183.061 273.59 180.661 271.532C180.385 271.296 180.11 271.04 179.828 270.778C180.831 269.669 181.756 268.496 182.595 267.263C184.097 267.139 185.592 266.909 187.067 266.575C187.132 266.843 187.192 267.112 187.244 267.375C187.565 268.791 187.618 270.266 187.408 271.722ZM188.601 264.673C188.418 264.732 188.234 264.791 188.044 264.844C187.585 263.414 187.021 262.018 186.372 260.66C187.001 259.323 187.532 257.946 187.978 256.536C188.319 256.634 188.647 256.739 188.962 256.844C192.017 257.893 194.161 259.454 194.161 260.647C194.161 261.932 191.873 263.591 188.601 264.673ZM178.786 263.69C180.444 263.69 181.789 262.345 181.789 260.687C181.789 259.028 180.444 257.684 178.786 257.684C177.127 257.684 175.783 259.028 175.783 260.687C175.783 262.345 177.127 263.69 178.786 263.69Z" fill="#98C1D9" stroke="black" stroke-width="0.8" mask="url(#path-4-inside-1_80_467)"/>
<mask id="path-5-inside-2_80_467" fill="white">
<path d="M258.789 289.335C258.385 289.335 257.982 289.219 257.617 289.027L253.927 286.836C253.369 286.529 253.638 286.413 253.83 286.356C254.561 286.106 254.715 286.048 255.503 285.587C255.579 285.549 255.695 285.568 255.772 285.606L258.616 287.298C258.712 287.355 258.866 287.355 258.962 287.298L270.07 280.878C270.166 280.821 270.243 280.705 270.243 280.571V267.752C270.243 267.618 270.186 267.502 270.07 267.445L258.962 261.045C258.866 260.987 258.731 260.987 258.616 261.045L247.508 267.445C247.392 267.502 247.335 267.637 247.335 267.752V280.571C247.335 280.686 247.411 280.802 247.508 280.859L250.544 282.608C252.197 283.435 253.215 282.454 253.215 281.493V268.828C253.215 268.655 253.35 268.502 253.542 268.502H254.945C255.118 268.502 255.272 268.636 255.272 268.828V281.493C255.272 283.704 254.08 284.953 251.985 284.953C251.351 284.953 250.832 284.953 249.429 284.261L246.508 282.589C245.797 282.166 245.336 281.397 245.336 280.571V267.752C245.336 266.926 245.778 266.138 246.508 265.734L257.617 259.315C258.328 258.911 259.25 258.911 259.942 259.315L271.05 265.734C271.762 266.157 272.223 266.926 272.223 267.752V280.571C272.223 281.397 271.781 282.185 271.05 282.589L259.942 289.008C259.615 289.219 259.212 289.335 258.789 289.335ZM267.764 276.689C267.764 274.286 266.15 273.652 262.729 273.191C259.269 272.73 258.923 272.499 258.923 271.692C258.923 271.019 259.212 270.135 261.768 270.135C264.055 270.135 264.9 270.635 265.246 272.172C265.285 272.326 265.4 272.422 265.554 272.422H266.995C267.091 272.422 267.168 272.384 267.226 272.326C267.284 272.249 267.322 272.172 267.303 272.076C267.072 269.424 265.323 268.194 261.768 268.194C258.597 268.194 256.713 269.539 256.713 271.769C256.713 274.21 258.597 274.863 261.633 275.17C265.266 275.536 265.554 276.055 265.554 276.766C265.554 278.015 264.555 278.534 262.21 278.534C259.269 278.534 258.616 277.803 258.405 276.343C258.385 276.189 258.251 276.074 258.078 276.074H256.636C256.463 276.074 256.31 276.208 256.31 276.4C256.31 278.265 257.328 280.494 262.191 280.494C265.746 280.494 267.764 279.11 267.764 276.689ZM278.238 267.06C278.238 268.233 277.277 269.193 276.105 269.193C274.933 269.193 273.972 268.233 273.972 267.06C273.972 265.849 274.971 264.927 276.105 264.927C277.258 264.908 278.238 265.849 278.238 267.06ZM277.892 267.06C277.892 266.061 277.085 265.273 276.086 265.273C275.106 265.273 274.298 266.061 274.298 267.06C274.298 268.06 275.106 268.867 276.086 268.867C277.085 268.848 277.892 268.04 277.892 267.06ZM277.028 268.252H276.528C276.509 268.136 276.432 267.521 276.432 267.502C276.393 267.368 276.355 267.291 276.182 267.291H275.759V268.252H275.298V265.849H276.124C276.412 265.849 276.97 265.849 276.97 266.484C276.97 266.926 276.682 267.022 276.509 267.079C276.835 267.099 276.855 267.31 276.912 267.618C276.931 267.81 276.97 268.136 277.028 268.252ZM276.489 266.56C276.489 266.234 276.259 266.234 276.143 266.234H275.759V266.906H276.124C276.432 266.906 276.489 266.695 276.489 266.56ZM224.387 239.174C224.387 238.655 224.118 238.194 223.676 237.944L211.895 231.16C211.703 231.044 211.472 230.987 211.242 230.967H211.126C210.896 230.967 210.684 231.044 210.473 231.16L198.711 237.944C198.269 238.194 198 238.674 198 239.174L198.019 257.432C198.019 257.681 198.154 257.912 198.365 258.047C198.577 258.181 198.846 258.181 199.076 258.047L206.072 254.03C206.514 253.761 206.783 253.3 206.783 252.8V244.267C206.783 243.767 207.052 243.287 207.494 243.037L210.473 241.326C210.704 241.192 210.934 241.134 211.184 241.134C211.434 241.134 211.684 241.192 211.895 241.326L214.874 243.037C215.316 243.287 215.585 243.767 215.585 244.267V252.8C215.585 253.3 215.854 253.78 216.296 254.03L223.292 258.047C223.503 258.181 223.792 258.181 224.003 258.047C224.214 257.931 224.349 257.681 224.349 257.432L224.387 239.174ZM288.809 219.244V253.146C288.809 253.645 288.54 254.126 288.097 254.376L276.316 261.179C275.874 261.429 275.336 261.429 274.894 261.179L263.113 254.376C262.671 254.126 262.402 253.645 262.402 253.146V239.539C262.402 239.039 262.671 238.559 263.113 238.309L274.894 231.505C275.336 231.256 275.874 231.256 276.316 231.505L279.257 233.197C279.584 233.389 280.006 233.139 280.006 232.774V214.708C280.006 214.17 280.583 213.824 281.063 214.093L288.078 218.014C288.52 218.245 288.809 218.725 288.809 219.244ZM279.968 244.017C279.968 243.882 279.891 243.767 279.795 243.709L275.759 241.365C275.644 241.307 275.509 241.307 275.394 241.365L271.358 243.709C271.243 243.767 271.185 243.882 271.185 244.017V248.687C271.185 248.822 271.262 248.937 271.358 248.995L275.394 251.32C275.509 251.378 275.644 251.378 275.74 251.32L279.776 248.995C279.891 248.937 279.949 248.822 279.949 248.687V244.017H279.968ZM320.289 243.882C320.731 243.633 321 243.152 321 242.652V239.366C321 238.866 320.731 238.386 320.289 238.136L308.585 231.333C308.143 231.083 307.605 231.083 307.162 231.333L295.381 238.136C294.939 238.386 294.67 238.866 294.67 239.366V252.973C294.67 253.492 294.939 253.953 295.381 254.203L307.086 260.872C307.508 261.122 308.047 261.122 308.489 260.872L315.561 256.932C316.042 256.663 316.042 255.971 315.561 255.702L303.703 248.898C303.473 248.764 303.338 248.533 303.338 248.283V244.017C303.338 243.767 303.473 243.536 303.703 243.402L307.393 241.269C307.605 241.134 307.893 241.134 308.104 241.269L311.794 243.402C312.006 243.536 312.159 243.767 312.159 244.017V247.361C312.159 247.899 312.755 248.245 313.236 247.976L320.289 243.882ZM305.433 244.555C305.356 244.613 305.298 244.69 305.298 244.786V247.399C305.298 247.495 305.356 247.592 305.433 247.63L307.701 248.937C307.777 248.995 307.893 248.995 307.97 248.937L310.238 247.63C310.314 247.572 310.372 247.495 310.372 247.399V244.786C310.372 244.69 310.314 244.593 310.238 244.555L307.97 243.248C307.893 243.19 307.777 243.19 307.701 243.248L305.433 244.555ZM256.579 252.915V239.385C256.579 238.885 256.271 238.405 255.829 238.155L244.087 231.39C243.683 231.16 243.126 231.121 242.664 231.39L230.922 238.155C230.48 238.405 230.172 238.866 230.172 239.385V252.915C230.172 253.453 230.537 253.915 230.941 254.145L242.703 260.91C243.164 261.179 243.702 261.16 244.125 260.91L255.848 254.145C256.194 253.953 256.444 253.626 256.54 253.242C256.56 253.146 256.579 253.03 256.579 252.915ZM242.299 228.911L242.145 229.007H242.357L242.299 228.911ZM256.944 253.934L256.867 253.799V253.972L256.944 253.934Z"/>
</mask>
<path d="M258.789 289.335C258.385 289.335 257.982 289.219 257.617 289.027L253.927 286.836C253.369 286.529 253.638 286.413 253.83 286.356C254.561 286.106 254.715 286.048 255.503 285.587C255.579 285.549 255.695 285.568 255.772 285.606L258.616 287.298C258.712 287.355 258.866 287.355 258.962 287.298L270.07 280.878C270.166 280.821 270.243 280.705 270.243 280.571V267.752C270.243 267.618 270.186 267.502 270.07 267.445L258.962 261.045C258.866 260.987 258.731 260.987 258.616 261.045L247.508 267.445C247.392 267.502 247.335 267.637 247.335 267.752V280.571C247.335 280.686 247.411 280.802 247.508 280.859L250.544 282.608C252.197 283.435 253.215 282.454 253.215 281.493V268.828C253.215 268.655 253.35 268.502 253.542 268.502H254.945C255.118 268.502 255.272 268.636 255.272 268.828V281.493C255.272 283.704 254.08 284.953 251.985 284.953C251.351 284.953 250.832 284.953 249.429 284.261L246.508 282.589C245.797 282.166 245.336 281.397 245.336 280.571V267.752C245.336 266.926 245.778 266.138 246.508 265.734L257.617 259.315C258.328 258.911 259.25 258.911 259.942 259.315L271.05 265.734C271.762 266.157 272.223 266.926 272.223 267.752V280.571C272.223 281.397 271.781 282.185 271.05 282.589L259.942 289.008C259.615 289.219 259.212 289.335 258.789 289.335ZM267.764 276.689C267.764 274.286 266.15 273.652 262.729 273.191C259.269 272.73 258.923 272.499 258.923 271.692C258.923 271.019 259.212 270.135 261.768 270.135C264.055 270.135 264.9 270.635 265.246 272.172C265.285 272.326 265.4 272.422 265.554 272.422H266.995C267.091 272.422 267.168 272.384 267.226 272.326C267.284 272.249 267.322 272.172 267.303 272.076C267.072 269.424 265.323 268.194 261.768 268.194C258.597 268.194 256.713 269.539 256.713 271.769C256.713 274.21 258.597 274.863 261.633 275.17C265.266 275.536 265.554 276.055 265.554 276.766C265.554 278.015 264.555 278.534 262.21 278.534C259.269 278.534 258.616 277.803 258.405 276.343C258.385 276.189 258.251 276.074 258.078 276.074H256.636C256.463 276.074 256.31 276.208 256.31 276.4C256.31 278.265 257.328 280.494 262.191 280.494C265.746 280.494 267.764 279.11 267.764 276.689ZM278.238 267.06C278.238 268.233 277.277 269.193 276.105 269.193C274.933 269.193 273.972 268.233 273.972 267.06C273.972 265.849 274.971 264.927 276.105 264.927C277.258 264.908 278.238 265.849 278.238 267.06ZM277.892 267.06C277.892 266.061 277.085 265.273 276.086 265.273C275.106 265.273 274.298 266.061 274.298 267.06C274.298 268.06 275.106 268.867 276.086 268.867C277.085 268.848 277.892 268.04 277.892 267.06ZM277.028 268.252H276.528C276.509 268.136 276.432 267.521 276.432 267.502C276.393 267.368 276.355 267.291 276.182 267.291H275.759V268.252H275.298V265.849H276.124C276.412 265.849 276.97 265.849 276.97 266.484C276.97 266.926 276.682 267.022 276.509 267.079C276.835 267.099 276.855 267.31 276.912 267.618C276.931 267.81 276.97 268.136 277.028 268.252ZM276.489 266.56C276.489 266.234 276.259 266.234 276.143 266.234H275.759V266.906H276.124C276.432 266.906 276.489 266.695 276.489 266.56ZM224.387 239.174C224.387 238.655 224.118 238.194 223.676 237.944L211.895 231.16C211.703 231.044 211.472 230.987 211.242 230.967H211.126C210.896 230.967 210.684 231.044 210.473 231.16L198.711 237.944C198.269 238.194 198 238.674 198 239.174L198.019 257.432C198.019 257.681 198.154 257.912 198.365 258.047C198.577 258.181 198.846 258.181 199.076 258.047L206.072 254.03C206.514 253.761 206.783 253.3 206.783 252.8V244.267C206.783 243.767 207.052 243.287 207.494 243.037L210.473 241.326C210.704 241.192 210.934 241.134 211.184 241.134C211.434 241.134 211.684 241.192 211.895 241.326L214.874 243.037C215.316 243.287 215.585 243.767 215.585 244.267V252.8C215.585 253.3 215.854 253.78 216.296 254.03L223.292 258.047C223.503 258.181 223.792 258.181 224.003 258.047C224.214 257.931 224.349 257.681 224.349 257.432L224.387 239.174ZM288.809 219.244V253.146C288.809 253.645 288.54 254.126 288.097 254.376L276.316 261.179C275.874 261.429 275.336 261.429 274.894 261.179L263.113 254.376C262.671 254.126 262.402 253.645 262.402 253.146V239.539C262.402 239.039 262.671 238.559 263.113 238.309L274.894 231.505C275.336 231.256 275.874 231.256 276.316 231.505L279.257 233.197C279.584 233.389 280.006 233.139 280.006 232.774V214.708C280.006 214.17 280.583 213.824 281.063 214.093L288.078 218.014C288.52 218.245 288.809 218.725 288.809 219.244ZM279.968 244.017C279.968 243.882 279.891 243.767 279.795 243.709L275.759 241.365C275.644 241.307 275.509 241.307 275.394 241.365L271.358 243.709C271.243 243.767 271.185 243.882 271.185 244.017V248.687C271.185 248.822 271.262 248.937 271.358 248.995L275.394 251.32C275.509 251.378 275.644 251.378 275.74 251.32L279.776 248.995C279.891 248.937 279.949 248.822 279.949 248.687V244.017H279.968ZM320.289 243.882C320.731 243.633 321 243.152 321 242.652V239.366C321 238.866 320.731 238.386 320.289 238.136L308.585 231.333C308.143 231.083 307.605 231.083 307.162 231.333L295.381 238.136C294.939 238.386 294.67 238.866 294.67 239.366V252.973C294.67 253.492 294.939 253.953 295.381 254.203L307.086 260.872C307.508 261.122 308.047 261.122 308.489 260.872L315.561 256.932C316.042 256.663 316.042 255.971 315.561 255.702L303.703 248.898C303.473 248.764 303.338 248.533 303.338 248.283V244.017C303.338 243.767 303.473 243.536 303.703 243.402L307.393 241.269C307.605 241.134 307.893 241.134 308.104 241.269L311.794 243.402C312.006 243.536 312.159 243.767 312.159 244.017V247.361C312.159 247.899 312.755 248.245 313.236 247.976L320.289 243.882ZM305.433 244.555C305.356 244.613 305.298 244.69 305.298 244.786V247.399C305.298 247.495 305.356 247.592 305.433 247.63L307.701 248.937C307.777 248.995 307.893 248.995 307.97 248.937L310.238 247.63C310.314 247.572 310.372 247.495 310.372 247.399V244.786C310.372 244.69 310.314 244.593 310.238 244.555L307.97 243.248C307.893 243.19 307.777 243.19 307.701 243.248L305.433 244.555ZM256.579 252.915V239.385C256.579 238.885 256.271 238.405 255.829 238.155L244.087 231.39C243.683 231.16 243.126 231.121 242.664 231.39L230.922 238.155C230.48 238.405 230.172 238.866 230.172 239.385V252.915C230.172 253.453 230.537 253.915 230.941 254.145L242.703 260.91C243.164 261.179 243.702 261.16 244.125 260.91L255.848 254.145C256.194 253.953 256.444 253.626 256.54 253.242C256.56 253.146 256.579 253.03 256.579 252.915ZM242.299 228.911L242.145 229.007H242.357L242.299 228.911ZM256.944 253.934L256.867 253.799V253.972L256.944 253.934Z" fill="#6CC24A" stroke="black" stroke-width="2" mask="url(#path-5-inside-2_80_467)"/>
<path d="M307.726 270.098V273.284C307.726 273.762 307.428 274.303 306.693 274.87C305.965 275.431 304.881 275.959 303.496 276.411C300.733 277.314 296.884 277.882 292.613 277.882C288.341 277.882 284.493 277.314 281.729 276.411C280.345 275.959 279.261 275.431 278.533 274.87C277.798 274.303 277.5 273.762 277.5 273.284V270.098C277.5 269.62 277.798 269.08 278.533 268.513C279.261 267.951 280.345 267.424 281.729 266.971C284.493 266.068 288.341 265.5 292.613 265.5C296.884 265.5 300.733 266.068 303.496 266.971C304.881 267.424 305.965 267.951 306.693 268.513C307.428 269.08 307.726 269.62 307.726 270.098ZM307.726 278.17V284.436C307.726 284.914 307.428 285.455 306.693 286.022C305.965 286.583 304.881 287.111 303.496 287.563C300.733 288.466 296.884 289.034 292.613 289.034C288.341 289.034 284.493 288.466 281.729 287.563C280.345 287.111 279.261 286.583 278.533 286.022C277.798 285.455 277.5 284.914 277.5 284.436V278.17C279.169 279.126 281.307 279.832 283.669 280.316C286.427 280.882 289.526 281.153 292.613 281.153C295.699 281.153 298.798 280.882 301.556 280.316C303.919 279.832 306.057 279.126 307.726 278.17ZM301.556 291.468C303.919 290.984 306.057 290.278 307.726 289.322V295.588C307.726 296.066 307.428 296.607 306.693 297.174C305.965 297.735 304.881 298.263 303.496 298.715C300.733 299.618 296.884 300.186 292.613 300.186C288.341 300.186 284.493 299.618 281.729 298.715C280.345 298.263 279.261 297.735 278.533 297.174C277.798 296.607 277.5 296.066 277.5 295.588V289.322C279.169 290.278 281.307 290.984 283.669 291.468C286.427 292.034 289.526 292.305 292.613 292.305C295.699 292.305 298.798 292.034 301.556 291.468Z" fill="#EBECF4" stroke="black"/>
<path d="M356.696 269.669H314.98C313.61 269.669 312.5 268.559 312.5 267.189V261.23C312.5 259.86 313.61 258.75 314.98 258.75H356.696C358.066 258.75 359.176 259.86 359.176 261.23V267.189C359.176 268.559 358.066 269.669 356.696 269.669ZM352.227 261.475C350.716 261.475 349.492 262.699 349.492 264.209C349.492 265.72 350.716 266.944 352.227 266.944C353.737 266.944 354.961 265.72 354.961 264.209C354.961 262.699 353.737 261.475 352.227 261.475ZM346.267 261.475C344.757 261.475 343.532 262.699 343.532 264.209C343.532 265.72 344.757 266.944 346.267 266.944C347.778 266.944 349.002 265.72 349.002 264.209C349.002 262.699 347.778 261.475 346.267 261.475ZM356.696 284.568H314.98C313.61 284.568 312.5 283.458 312.5 282.088V276.128C312.5 274.759 313.61 273.649 314.98 273.649H356.696C358.066 273.649 359.176 274.759 359.176 276.128V282.088C359.176 283.458 358.066 284.568 356.696 284.568ZM352.227 276.373C350.716 276.373 349.492 277.598 349.492 279.108C349.492 280.619 350.716 281.843 352.227 281.843C353.737 281.843 354.961 280.619 354.961 279.108C354.961 277.598 353.737 276.373 352.227 276.373ZM346.267 276.373C344.757 276.373 343.532 277.598 343.532 279.108C343.532 280.619 344.757 281.843 346.267 281.843C347.778 281.843 349.002 280.619 349.002 279.108C349.002 277.598 347.778 276.373 346.267 276.373ZM356.696 299.466H314.98C313.61 299.466 312.5 298.356 312.5 296.987V291.027C312.5 289.658 313.61 288.547 314.98 288.547H356.696C358.066 288.547 359.176 289.658 359.176 291.027V296.987C359.176 298.356 358.066 299.466 356.696 299.466ZM352.227 291.272C350.716 291.272 349.492 292.497 349.492 294.007C349.492 295.517 350.716 296.742 352.227 296.742C353.737 296.742 354.961 295.517 354.961 294.007C354.961 292.497 353.737 291.272 352.227 291.272ZM346.267 291.272C344.757 291.272 343.532 292.497 343.532 294.007C343.532 295.517 344.757 296.742 346.267 296.742C347.778 296.742 349.002 295.517 349.002 294.007C349.002 292.497 347.778 291.272 346.267 291.272Z" fill="#EBECF4" stroke="black"/>
<path d="M347.551 223.307L347.34 223.859L347.919 223.976C352.037 224.808 355.141 228.455 355.141 232.82C355.141 237.807 351.099 241.848 346.112 241.848H318.719C313.077 241.848 308.5 237.271 308.5 231.629C308.5 227.173 311.352 223.383 315.327 221.985L315.674 221.863L315.661 221.495C315.653 221.292 315.646 221.1 315.646 220.91C315.646 214.606 320.752 209.5 327.056 209.5C331.284 209.5 334.971 211.795 336.948 215.22L337.215 215.683L337.659 215.385C338.711 214.679 339.984 214.264 341.348 214.264C345.017 214.264 347.994 217.241 347.994 220.91C347.994 221.755 347.835 222.566 347.551 223.307ZM321.592 228.556H325.961V236.393C325.961 237.325 326.721 238.084 327.652 238.084H331.225C332.156 238.084 332.916 237.325 332.916 236.393V228.556H337.284C338.784 228.556 339.547 226.739 338.479 225.67L330.633 217.825C329.976 217.168 328.9 217.168 328.244 217.825L320.398 225.67C319.332 226.737 320.081 228.556 321.592 228.556Z" fill="#EBECF4" stroke="black"/>
<path d="M84.382 292.966H86.2641H84.382ZM84.382 292.966C84.0691 292.967 83.7592 292.905 83.47 292.786M84.382 292.966L83.47 292.786M127.259 278.674H125.376H127.259ZM127.259 278.674C127.571 278.674 127.881 278.735 128.171 278.855C128.46 278.974 128.722 279.15 128.944 279.371C129.165 279.592 129.34 279.855 129.46 280.144C129.58 280.433 129.641 280.743 129.641 281.056L127.259 278.674ZM101.566 279.124C101.948 279.696 102.152 280.368 102.152 281.056L101.566 279.124ZM101.566 279.124C101.184 278.552 100.64 278.107 100.005 277.843M101.566 279.124L100.005 277.843M100.005 277.843C99.3695 277.58 98.6703 277.511 97.9958 277.646M100.005 277.843L97.9958 277.646M97.9958 277.646C97.3212 277.78 96.7015 278.111 96.2152 278.597M97.9958 277.646L96.2152 278.597M96.2152 278.597C95.7289 279.084 95.3977 279.703 95.2635 280.378M96.2152 278.597L95.2635 280.378M95.2635 280.378C95.1293 281.052 95.1982 281.752 95.4614 282.387M95.2635 280.378L95.4614 282.387M95.4614 282.387C95.7246 283.022 96.1703 283.566 96.7422 283.948M95.4614 282.387L96.7422 283.948M96.7422 283.948C97.314 284.33 97.9864 284.534 98.6742 284.534L96.7422 283.948ZM115.858 279.124C116.24 279.696 116.444 280.368 116.444 281.056C116.444 281.513 116.354 281.965 116.179 282.387L115.717 282.196L116.179 282.387C116.004 282.809 115.748 283.192 115.425 283.515C115.102 283.838 114.719 284.094 114.297 284.269C113.875 284.444 113.423 284.534 112.966 284.534L115.858 279.124ZM115.858 279.124C115.476 278.552 114.933 278.107 114.297 277.843M115.858 279.124L114.297 277.843M114.297 277.843C113.662 277.58 112.962 277.511 112.288 277.646M114.297 277.843L112.288 277.646M112.288 277.646C111.613 277.78 110.994 278.111 110.507 278.597M112.288 277.646L110.507 278.597M110.507 278.597C110.021 279.084 109.69 279.703 109.556 280.378M110.507 278.597L109.556 280.378M109.556 280.378C109.421 281.052 109.49 281.752 109.754 282.387M109.556 280.378L109.754 282.387M109.754 282.387C110.017 283.022 110.462 283.566 111.034 283.948M109.754 282.387L111.034 283.948M111.034 283.948C111.606 284.33 112.279 284.534 112.966 284.534L111.034 283.948ZM83.47 292.786C83.1809 292.666 82.9181 292.491 82.6968 292.27M83.47 292.786L82.6968 292.27M82.6968 292.27C82.4756 292.048 82.3001 291.785 82.1806 291.496M82.6968 292.27L82.1806 291.496M82.1806 291.496C82.061 291.207 81.9996 290.897 82 290.584L82.1806 291.496ZM84.3814 279.174H84.382H86.2641V292.466H84.382H84.3814C84.1343 292.467 83.8895 292.418 83.6611 292.324C83.4327 292.229 83.2252 292.091 83.0504 291.916L82.7015 292.265L83.0504 291.916C82.8756 291.741 82.7371 291.534 82.6426 291.305C82.5482 291.077 82.4997 290.832 82.5 290.585V290.584L82.5 281.056L82.5 281.056C82.4997 280.808 82.5482 280.564 82.6426 280.335C82.7371 280.107 82.8756 279.899 83.0504 279.725L82.7015 279.376L83.0504 279.725C83.2252 279.55 83.4327 279.411 83.6611 279.317L83.47 278.855L83.6611 279.317C83.8895 279.222 84.1343 279.174 84.3814 279.174ZM86.7641 279.174V292.466V279.174ZM84.382 278.674H86.2641H84.382ZM121.994 275.101V275.101V295.348C121.993 296.479 121.544 297.563 120.744 298.362C119.945 299.162 118.861 299.611 117.73 299.612H93.9106C92.7799 299.611 91.6959 299.162 90.8964 298.362C90.097 297.563 89.6473 296.479 89.6461 295.348C89.6461 295.348 89.6461 295.348 89.6461 295.348L89.6461 275.101V275.101C89.6458 274.385 89.7868 273.675 90.0608 273.013C90.3349 272.351 90.7367 271.75 91.2433 271.243C91.7498 270.737 92.3513 270.335 93.0132 270.061C93.6751 269.787 94.3846 269.646 95.101 269.646H95.1011H103.438H103.938V269.146V264.382C103.938 263.883 104.137 263.404 104.489 263.051C104.842 262.698 105.321 262.5 105.82 262.5C106.319 262.5 106.798 262.698 107.151 263.051C107.504 263.404 107.702 263.883 107.702 264.382V269.146V269.646H108.202H116.539H116.54C117.256 269.646 117.965 269.787 118.627 270.061C119.289 270.335 119.891 270.737 120.397 271.243C120.904 271.75 121.306 272.351 121.58 273.013C121.854 273.675 121.995 274.385 121.994 275.101ZM101.556 290.584V290.084H101.056H96.2922H95.7922V290.584V292.966V293.466H96.2922H101.056H101.556V292.966V290.584ZM108.702 290.584V290.084H108.202H103.438H102.938V290.584V292.966V293.466H103.438H108.202H108.702V292.966V290.584ZM115.848 290.584V290.084H115.348H110.584H110.084V290.584V292.966V293.466H110.584H115.348H115.848V292.966V290.584ZM129.141 281.056V281.056V290.584V290.585C129.141 290.832 129.092 291.077 128.998 291.305C128.903 291.534 128.765 291.741 128.59 291.916C128.415 292.091 128.208 292.229 127.979 292.324C127.751 292.418 127.506 292.467 127.259 292.466H127.259H125.376V279.174H127.259H127.259C127.506 279.174 127.751 279.222 127.979 279.317C128.208 279.411 128.415 279.55 128.59 279.725C128.765 279.899 128.903 280.107 128.998 280.335C129.092 280.564 129.141 280.808 129.141 281.056ZM98.6742 284.534C99.1309 284.534 99.5831 284.444 100.005 284.269C100.427 284.094 100.81 283.838 101.133 283.515C101.456 283.192 101.712 282.809 101.887 282.387C102.062 281.965 102.152 281.513 102.152 281.056L98.6742 284.534Z" fill="#EBECF4" stroke="black"/>
<path d="M57.5345 263.5H74.029C75.7042 263.5 77.0636 264.859 77.0636 266.535V297.167C77.0636 298.842 75.7042 300.202 74.029 300.202H57.5345C55.8593 300.202 54.5 298.842 54.5 297.167V266.535C54.5 264.859 55.8593 263.5 57.5345 263.5ZM62.9254 295.989C62.9254 297.568 64.2023 298.845 65.7818 298.845C67.3613 298.845 68.6381 297.568 68.6381 295.989C68.6381 294.409 67.3613 293.133 65.7818 293.133C64.2023 293.133 62.9254 294.409 62.9254 295.989ZM73.1454 291.776C73.9075 291.776 74.529 291.155 74.529 290.393V267.418C74.529 266.656 73.9075 266.035 73.1454 266.035H58.4182C57.656 266.035 57.0345 266.656 57.0345 267.418V290.393C57.0345 291.155 57.656 291.776 58.4182 291.776H73.1454Z" fill="#EBECF4" stroke="black"/>
<path d="M69.6819 288.7C69.5501 288.7 69.4212 288.656 69.3116 288.572C69.2019 288.489 69.1165 288.37 69.066 288.231C69.0156 288.092 69.0024 287.939 69.0281 287.792C69.0538 287.644 69.1173 287.509 69.2105 287.402C69.3038 287.296 69.4226 287.224 69.5519 287.194C69.6812 287.165 69.8152 287.18 69.9371 287.237C70.0589 287.295 70.163 287.392 70.2363 287.517C70.3095 287.643 70.3486 287.79 70.3486 287.94C70.3486 288.142 70.2784 288.335 70.1533 288.478C70.0283 288.62 69.8588 288.7 69.6819 288.7ZM62.3181 288.7C62.1862 288.7 62.0573 288.656 61.9477 288.572C61.838 288.489 61.7526 288.37 61.7021 288.231C61.6517 288.092 61.6385 287.939 61.6642 287.792C61.6899 287.644 61.7534 287.509 61.8467 287.402C61.9399 287.296 62.0587 287.224 62.188 287.194C62.3173 287.165 62.4514 287.18 62.5732 287.237C62.695 287.295 62.7991 287.392 62.8724 287.517C62.9456 287.643 62.9847 287.79 62.9847 287.94C62.9847 288.142 62.9145 288.335 62.7895 288.478C62.6644 288.62 62.4949 288.7 62.3181 288.7ZM69.9208 284.123L71.2525 281.493C71.2737 281.457 71.2882 281.417 71.295 281.374C71.3019 281.331 71.301 281.288 71.2925 281.245C71.2839 281.203 71.2678 281.163 71.2452 281.128C71.2226 281.094 71.1939 281.064 71.161 281.043C71.1281 281.021 71.0917 281.007 71.0539 281.002C71.0161 280.997 70.9778 281.001 70.9414 281.014C70.9051 281.026 70.8713 281.047 70.8423 281.075C70.8133 281.103 70.7896 281.138 70.7728 281.177L69.4244 283.84C68.3474 283.289 67.1804 283.004 66 283.004C64.8196 283.004 63.6526 283.289 62.5756 283.84L61.2272 281.177C61.2104 281.138 61.1867 281.103 61.1577 281.075C61.1287 281.047 61.0949 281.026 61.0586 281.014C61.0222 281.001 60.9839 280.997 60.9461 281.002C60.9083 281.007 60.8719 281.021 60.839 281.043C60.8061 281.064 60.7774 281.094 60.7548 281.128C60.7322 281.163 60.7161 281.203 60.7075 281.245C60.699 281.288 60.6981 281.331 60.705 281.374C60.7118 281.417 60.7263 281.457 60.7475 281.493L62.0792 284.123C59.7925 285.541 58.2289 288.181 58 291.3H74C73.7711 288.181 72.2072 285.541 69.9208 284.123Z" fill="#A4C639"/>
<path d="M125.12 259.675L125.12 259.675C126.687 260.157 126.687 262.272 125.12 262.754L125.12 262.754L112.133 266.744L112.133 266.744C111.057 267.074 110.14 266.89 109.662 266.744L109.661 266.744L100.805 264.023C100.531 264.268 100.344 264.589 100.272 264.947C100.684 265.3 100.969 265.817 100.969 266.429C100.969 266.987 100.729 267.464 100.378 267.81L101.501 272.863L101.012 272.971L101.501 272.863C101.673 273.64 101.082 274.378 100.285 274.378H97.673C96.8766 274.378 96.2855 273.64 96.4582 272.863L96.945 272.971L96.4582 272.863L97.5811 267.81C97.2294 267.464 96.9896 266.987 96.9896 266.429C96.9896 265.778 97.3104 265.229 97.7717 264.876C97.8306 264.29 98.013 263.742 98.2921 263.25L96.6751 262.753C96.6751 262.753 96.6751 262.753 96.6751 262.753C95.1083 262.272 95.1083 260.156 96.6751 259.675L125.12 259.675ZM125.12 259.675L112.134 255.685C111.331 255.438 110.465 255.438 109.662 255.685C109.662 255.685 109.662 255.685 109.662 255.685L96.6751 259.675L125.12 259.675ZM109.518 267.212L109.517 267.212L102.766 265.138L102.197 264.963L102.123 265.554L101.463 270.836L101.459 270.867V270.898C101.459 271.528 101.843 272.049 102.352 272.451C102.867 272.856 103.581 273.2 104.419 273.479C106.1 274.04 108.39 274.378 110.898 274.378C113.405 274.378 115.695 274.04 117.376 273.479C118.214 273.2 118.928 272.856 119.443 272.451C119.953 272.049 120.336 271.528 120.336 270.898V270.867L120.333 270.836L119.672 265.553L119.599 264.962L119.029 265.137L112.277 267.212C111.078 267.58 110.054 267.377 109.518 267.212Z" fill="#EBECF4" stroke="black"/>
</svg>
