<svg width="100%" style="" viewBox="0 0 351 630" fill="currentColor" xmlns="http://www.w3.org/2000/svg">
<path d="M200.204 624.735H56.0141L43.9983 615.959H200.204V624.735Z" fill="currentColor"/>
<path d="M198.449 621.224C198.449 616.378 202.378 612.449 207.224 612.449C212.071 612.449 216 616.378 216 621.224C216 626.071 212.071 630 207.224 630C202.378 630 198.449 626.071 198.449 621.224ZM212.695 621.224C212.695 618.203 210.246 615.754 207.224 615.754C204.203 615.754 201.754 618.203 201.754 621.224C201.754 624.246 204.203 626.695 207.224 626.695C210.246 626.695 212.695 624.246 212.695 621.224Z" fill="currentColor"/>
<path d="M172.122 607.183H33.4674L5.38549 577.346V435.181H13.2835L14.1611 570.326L40.4879 598.408H172.122V607.183Z" fill="currentColor"/>
<path d="M0.120213 428.161C0.120213 423.314 4.04919 419.385 8.89582 419.385C13.7425 419.385 17.6714 423.314 17.6714 428.161C17.6714 433.008 13.7425 436.937 8.89582 436.937C4.04919 436.937 0.120213 433.008 0.120213 428.161ZM14.3663 428.161C14.3663 425.14 11.9171 422.691 8.89582 422.691C5.87457 422.691 3.42536 425.14 3.42536 428.161C3.42536 431.182 5.87457 433.631 8.89582 433.631C11.9171 433.631 14.3663 431.182 14.3663 428.161Z" fill="currentColor"/>
<path d="M135 0H294.867L308.189 9.72972H135V0Z" fill="currentColor"/>
<path d="M335.432 231.568V66.1621L327.648 58.3783V231.568L335.432 231.568Z" fill="currentColor"/>
<path d="M166.135 19.4595H319.865L351 52.5405V208.216L341.27 217.946V60.3243L312.081 29.1892H166.135V19.4595Z" fill="currentColor"/>
<path d="M341.27 239.351C341.27 244.725 336.914 249.081 331.54 249.081C326.167 249.081 321.81 244.725 321.81 239.351C321.81 233.978 326.167 229.621 331.54 229.621C336.914 229.621 341.27 233.978 341.27 239.351ZM325.475 239.351C325.475 242.701 328.19 245.416 331.54 245.416C334.89 245.416 337.605 242.701 337.605 239.351C337.605 236.001 334.89 233.286 331.54 233.286C328.19 233.286 325.475 236.001 325.475 239.351Z" fill="currentColor"/>
<rect x="318" y="326" width="11" height="235" fill="currentColor"/>
<rect x="9" y="101" width="11" height="235" fill="currentColor"/>
<path d="M43.5 56L49.5 66.5L40 70.5V182H29V70.5L32.5 61L43.5 56Z" fill="currentColor"/>
<path d="M324 277L325.5 264L337 269L343 280V512H332V280L324 277Z" fill="currentColor"/>
<path d="M327.459 269.73C327.459 275.103 323.103 279.459 317.73 279.459C312.356 279.459 308 275.103 308 269.73C308 264.356 312.356 260 317.73 260C323.103 260 327.459 264.356 327.459 269.73ZM311.664 269.73C311.664 273.079 314.38 275.795 317.73 275.795C321.079 275.795 323.795 273.079 323.795 269.73C323.795 266.38 321.079 263.664 317.73 263.664C314.38 263.664 311.664 266.38 311.664 269.73Z" fill="currentColor"/>
<path d="M23.4594 94.7297C23.4594 100.103 19.1033 104.459 13.7297 104.459C8.35615 104.459 4 100.103 4 94.7297C4 89.3561 8.35615 85 13.7297 85C19.1033 85 23.4594 89.3561 23.4594 94.7297ZM7.66449 94.7297C7.66449 98.0795 10.38 100.795 13.7297 100.795C17.0795 100.795 19.795 98.0795 19.795 94.7297C19.795 91.38 17.0795 88.6645 13.7297 88.6645C10.38 88.6645 7.66449 91.38 7.66449 94.7297Z" fill="currentColor"/>
<path d="M62.4594 57.7297C62.4594 63.1033 58.1033 67.4594 52.7297 67.4594C47.3561 67.4594 43 63.1033 43 57.7297C43 52.3561 47.3561 48 52.7297 48C58.1033 48 62.4594 52.3561 62.4594 57.7297ZM46.6645 57.7297C46.6645 61.0795 49.38 63.795 52.7297 63.795C56.0795 63.795 58.795 61.0795 58.795 57.7297C58.795 54.38 56.0795 51.6645 52.7297 51.6645C49.38 51.6645 46.6645 54.38 46.6645 57.7297Z" fill="currentColor"/>
</svg>
